<svg width="41" height="33" viewBox="0 0 41 33" fill="none" xmlns="http://www.w3.org/2000/svg">
<path d="M35.3892 5.7429L34.3802 6.3254L32.9942 3.92476C32.5408 3.13935 31.5305 2.8696 30.7437 3.32385L28.58 4.57309C28.0684 4.0239 27.223 3.87854 26.5441 4.27052L24.4501 5.47946C23.9045 5.79452 23.7226 6.49068 24.0335 7.02908L25.9644 10.3735L13.2866 17.693L11.3557 14.3486C11.0412 13.8038 10.3447 13.6232 9.80539 13.9346L7.71145 15.1436C7.03251 15.5355 6.7357 16.3403 6.95551 17.058L4.79178 18.3072C4.00499 18.7615 3.73348 19.7712 4.18694 20.5567L5.57295 22.9573L4.53868 23.5544C4.08817 23.8145 3.93227 24.3944 4.19191 24.8441L5.14276 26.491C5.4024 26.9407 5.98253 27.0956 6.43301 26.8355L7.46728 26.2384L8.8533 28.639C9.30675 29.4244 10.317 29.6942 11.1038 29.2399L13.2675 27.9907C13.7792 28.5399 14.6245 28.6852 15.3034 28.2933L17.3974 27.0843C17.9431 26.7693 18.1249 26.0731 17.8141 25.5347L15.8831 22.1903L28.5609 14.8708L30.4918 18.2152C30.8063 18.7599 31.5028 18.9406 32.0421 18.6292L34.1361 17.4202C34.815 17.0282 35.1118 16.2235 34.892 15.5058L37.0557 14.2566C37.8425 13.8023 38.114 12.7925 37.6606 12.0071L36.2746 9.60649L37.2835 9.02399C37.734 8.76388 37.8899 8.18403 37.6303 7.73433L36.6794 6.08742C36.4198 5.63769 35.8396 5.48281 35.3892 5.7429V5.7429ZM6.87412 25.314L6.01749 25.8086L5.22025 24.4277L6.07688 23.9332L6.87412 25.314ZM12.6844 27.069L10.5587 28.2963C10.2986 28.4465 9.9585 28.3557 9.80856 28.096L5.13859 20.0074C4.98865 19.7477 5.08006 19.4077 5.34021 19.2575L7.46589 18.0303L12.6844 27.069ZM14.6606 22.2712L16.8658 26.0907C16.8768 26.1097 16.8714 26.1297 16.8523 26.1407L14.7584 27.3496C14.4982 27.4998 14.1582 27.409 14.0082 27.1493L8.05466 16.8374C7.90472 16.5777 7.99612 16.2378 8.25627 16.0876L10.3502 14.8787C10.3693 14.8677 10.3893 14.873 10.4002 14.892L14.6606 22.2712ZM28.0161 13.927L15.3383 21.2465L13.8353 18.6431L26.513 11.3237L28.0161 13.927ZM27.9306 5.57286L33.7892 15.7203C33.9391 15.98 33.8477 16.3199 33.5876 16.4701L31.4936 17.679C31.4746 17.69 31.4546 17.6847 31.4436 17.6657L24.9778 6.46657C24.9669 6.44757 24.9722 6.42758 24.9913 6.41659L27.0852 5.20764C27.3454 5.05744 27.6854 5.14825 27.8354 5.40795L27.9306 5.57286ZM36.7026 12.5603C36.8525 12.82 36.7611 13.1599 36.501 13.3101L34.3753 14.5374L29.1566 5.49842L31.2823 4.27115C31.5425 4.12095 31.8825 4.21176 32.0325 4.47146L36.7026 12.5603ZM36.6018 8.15083L35.7451 8.64541L34.9479 7.26454L35.8045 6.76997L36.6018 8.15083Z" fill="#E75820"/>
</svg>
