<svg width="77" height="88" viewBox="0 0 77 88" fill="none" xmlns="http://www.w3.org/2000/svg">
<path d="M72.7644 79.5764H66.4634C66.4613 79.5694 66.4641 79.5638 66.462 79.5568L64.4378 72.2086C70.0401 69.0138 73.8333 62.9966 73.8333 56.1006C73.8333 45.878 65.5137 37.5583 55.2874 37.5583C55.2559 37.5583 55.2257 37.5653 55.1942 37.5653L50.8375 22.712C50.6973 22.2283 50.2655 21.9178 49.7812 21.9052L48.3458 16.8252C48.1755 16.2252 47.5531 15.8713 46.9594 16.0297L45.6564 16.3696L44.0156 11.1025C43.9736 10.9994 44.0128 10.8796 44.1046 10.8179L47.0758 8.81761C48.5659 7.81603 49.2044 5.92718 48.6269 4.21972C48.2057 2.98404 47.1788 2.02386 45.8759 1.65585L40.1621 0.0458771C39.5565 -0.132851 38.9264 0.227407 38.7533 0.835082C38.5802 1.44346 38.9348 2.07356 39.5425 2.24389L45.2534 3.85386C45.831 4.01857 46.283 4.4286 46.4618 4.95287C46.7099 5.6839 46.4365 6.49274 45.8008 6.9196L44.9261 7.50835L42.9075 5.98739C40.8098 4.40827 38.3152 3.48722 35.6953 3.32896L28.9778 2.92454C28.3512 2.94697 27.8073 3.3654 27.7681 3.99622C27.7302 4.62703 28.2103 5.16812 28.8404 5.20738L35.5544 5.61179C37.7251 5.74286 39.7927 6.50474 41.531 7.8134L42.9188 8.86053L42.8284 8.92151C41.8464 9.57966 41.4553 10.8104 41.8548 11.8512L43.4416 16.9481L42.2431 17.2607C41.9445 17.3364 41.6908 17.5313 41.5401 17.7962C41.3866 18.064 41.3474 18.3794 41.4315 18.6751L42.8417 23.6669C42.6938 23.7643 42.5627 23.8856 42.4723 24.0426C42.3188 24.3103 42.2824 24.6313 42.3693 24.9299L42.6889 26.0191L33.5394 36.8599L22.8976 39.73L22.0194 34.2147H23.9012C26.0158 34.2147 27.7358 32.4933 27.7358 30.3787C27.7358 28.2641 26.0158 26.5427 23.9012 26.5427H14.5911L11.8695 21.2053C10.8904 19.2856 8.94393 18.0919 6.53509 18.0919C5.43888 18.0919 4.4345 18.647 3.84723 19.5736C3.25988 20.5002 3.19048 21.6469 3.65868 22.6372L7.43927 30.6274C8.47029 32.8065 10.6943 34.2152 13.1046 34.2152H13.5293L16.5377 52.3179C15.6251 52.9291 14.7784 53.6433 14.0978 54.5328C12.3399 56.8261 11.6412 59.7671 12.1795 62.6043C12.45 64.032 13.0213 65.3427 13.8231 66.4977L5.92532 79.5773H3.85003C1.72701 79.5773 0 81.3071 0 83.4302V84.15C0 86.273 1.72701 88 3.85003 88H72.7637C74.8867 88 76.6137 86.273 76.6137 84.15V83.4302C76.6137 81.3071 74.8867 79.5773 72.7637 79.5773L72.7644 79.5764ZM55.2876 39.847C64.2521 39.847 71.5448 47.1371 71.5448 56.1016C71.5448 65.0661 64.2519 72.3561 55.2876 72.3561C50.4541 72.3561 45.9271 70.2051 42.8502 66.5464L57.227 63.3748C61.2278 62.493 63.8618 58.629 63.2232 54.5806C62.5952 50.622 59.0298 47.6949 54.9701 48.0545L40.6423 49.1346C43.3092 43.5267 48.967 39.8469 55.2876 39.8469V39.847ZM64.0958 79.5764H59.7545L58.3513 74.4899L62.3884 73.3769L64.0958 79.5764ZM32.4103 75.7761H38.3083C38.9391 75.7761 39.4522 75.263 39.4522 74.6322C39.4522 74.0014 38.9391 73.4883 38.3083 73.4883H35.7886L31.8705 68.9683L40.392 67.0884C43.8873 71.8202 49.3845 74.6433 55.2883 74.6433C55.5329 74.6433 55.7698 74.616 56.0116 74.6069L57.3826 79.5762H29.5673L28.1003 69.8001L29.3304 69.5289L32.762 73.4882H32.4095C31.7787 73.4882 31.2656 74.0013 31.2656 74.6321C31.2656 75.2629 31.7787 75.7759 32.4095 75.7759L32.4103 75.7761ZM38.0722 49.3281L24.5889 50.3444L24.1235 47.4238L36.6674 44.1008C37.4602 43.8968 38.1548 43.4651 38.6566 42.8672L45.3992 35.2624L46.6973 39.69C42.8234 41.7198 39.7338 45.1024 38.0721 49.3281L38.0722 49.3281ZM48.9549 24.4089L52.8681 37.7491C51.4635 37.9342 50.1115 38.2867 48.8107 38.7738L44.8982 25.4266L48.9549 24.4089ZM46.4521 18.5241L47.5497 22.4057L45.0391 23.0365L43.9499 19.1774L46.4521 18.5241ZM34.4807 38.972C34.7036 38.9131 34.9047 38.7848 35.0554 38.6068L43.4614 28.6484L44.6417 32.6745L36.9303 41.3691C36.7186 41.6228 36.4306 41.8016 36.0906 41.8878L23.7633 45.1539L23.2607 41.997L34.4807 38.972ZM13.1052 31.9272C11.5737 31.9272 10.1615 31.0342 9.50746 29.6506L5.72544 21.6604C5.53549 21.256 5.6988 20.9209 5.77871 20.7955C5.85791 20.67 6.09131 20.3798 6.7915 20.3798C8.08185 20.3798 9.24807 21.0941 9.83409 22.2436L12.8738 28.206C13.0694 28.588 13.4626 28.8312 13.8922 28.8312H23.9032C24.7568 28.8312 25.4528 29.5258 25.4528 30.3795C25.4528 31.2332 24.7568 31.9278 23.9032 31.9278L13.1052 31.9272ZM15.8464 34.2149H19.7063L22.3024 50.5158L21.3934 50.5844C20.4486 50.6552 19.5458 50.9012 18.6718 51.223L15.8464 34.2149ZM15.9115 55.9205C17.2734 54.1459 19.3347 53.0301 21.5672 52.8596L55.1439 50.3293C55.2806 50.3209 55.4144 50.3153 55.5511 50.3153C58.2076 50.3153 60.545 52.2765 60.9634 54.9356C61.4155 57.7925 59.5602 60.5182 56.7362 61.1407L30.1663 67.0016L26.1838 62.4078C26.3899 61.8954 26.5097 61.3403 26.5097 60.7551C26.5097 58.3026 24.515 56.3079 22.064 56.3079C19.613 56.3079 17.6183 58.3026 17.6183 60.7551C17.6183 63.2075 19.613 65.2023 22.064 65.2023C23.0852 65.2023 24.0153 64.842 24.7666 64.261L27.6269 67.5616L23.8518 68.3942C21.7541 68.8547 19.615 68.4636 17.8226 67.2812C16.0311 66.0981 14.8249 64.2876 14.4246 62.178C14.0083 59.9772 14.5501 57.6979 15.9112 55.9204L15.9115 55.9205ZM24.2263 60.756C24.2263 61.9475 23.257 62.9154 22.0655 62.9154C20.8739 62.9154 19.9046 61.9475 19.9046 60.756C19.9046 59.5645 20.8739 58.5966 22.0655 58.5966C23.257 58.5966 24.2263 59.5645 24.2263 60.756ZM27.2578 79.5746H23.0236L21.7129 70.8392C21.8524 70.8448 21.9898 70.8694 22.13 70.8694C22.8666 70.8694 23.6089 70.7888 24.3456 70.6269L25.8644 70.2918L27.2578 79.5746ZM20.7127 79.5746H15.0783L19.5864 72.0658L20.7127 79.5746ZM15.4265 68.2642C15.791 68.5881 16.1513 68.9161 16.5662 69.1901C17.0716 69.5231 17.6035 69.7908 18.1467 70.0256L12.4141 79.5747H8.59838L15.4265 68.2642ZM74.328 84.1474C74.328 85.0095 73.6278 85.7097 72.7657 85.7097H3.85206C2.98856 85.7097 2.28695 85.0095 2.28695 84.1474V83.4276C2.28695 82.5626 2.98856 81.8624 3.85206 81.8624H72.7657C73.6278 81.8624 74.328 82.5626 74.328 83.4276V84.1474Z" fill="#E75820"/>
<path d="M55.2861 59.4946C57.3838 59.4946 59.0913 57.7872 59.0913 55.6894C59.0913 53.5917 57.3839 51.8843 55.2861 51.8843C53.1904 51.8843 51.4831 53.5917 51.4831 55.6894C51.4838 57.7872 53.1912 59.4946 55.2861 59.4946ZM55.2861 54.1713C56.123 54.1713 56.8042 54.8519 56.8042 55.6894C56.8042 56.5263 56.1237 57.2076 55.2861 57.2076C54.4492 57.2076 53.7708 56.527 53.7708 55.6894C53.7715 54.8526 54.4492 54.1713 55.2861 54.1713Z" fill="#E75820"/>
</svg>
