<svg width="24" height="24" viewBox="0 0 24 24" fill="none" xmlns="http://www.w3.org/2000/svg">
<path d="M12 0C5.38105 0 0 5.38105 0 12C0 18.6189 5.38105 24 12 24C18.6189 24 24 18.6189 24 12C24 5.38105 18.6189 0 12 0ZM12 22.5347C6.18947 22.5347 1.46526 17.8105 1.46526 12C1.46526 6.18947 6.18947 1.46526 12 1.46526C17.8105 1.46526 22.5347 6.18947 22.5347 12C22.5347 17.8105 17.8105 22.5347 12 22.5347Z" fill="#E75820"/>
<path d="M17.5581 8.21052L10.4591 15.3095L6.8466 11.6969C6.49293 11.3433 5.91191 11.3433 5.55823 11.6969C5.20454 12.0506 5.20455 12.6316 5.55823 12.9853L9.80235 17.2294C9.97928 17.4064 10.2066 17.5073 10.4591 17.5073C10.7118 17.5073 10.9392 17.4064 11.1159 17.2294L18.8465 9.4989C19.2001 9.14522 19.2001 8.56421 18.8465 8.21052C18.493 7.85685 17.9372 7.85685 17.5581 8.21052Z" fill="#E75820"/>
</svg>
