<svg width="16" height="16" viewBox="0 0 16 16" fill="none" xmlns="http://www.w3.org/2000/svg">
<path d="M8 0C3.58737 0 0 3.58737 0 8C0 12.4126 3.58737 16 8 16C12.4126 16 16 12.4126 16 8C16 3.58737 12.4126 0 8 0ZM8 15.0232C4.12632 15.0232 0.976842 11.8737 0.976842 8C0.976842 4.12632 4.12632 0.976842 8 0.976842C11.8737 0.976842 15.0232 4.12632 15.0232 8C15.0232 11.8737 11.8737 15.0232 8 15.0232Z" fill="#F2F2F2"/>
<path d="M11.7051 5.47371L6.97244 10.2063L4.56408 7.79798C4.32829 7.5622 3.94095 7.5622 3.70516 7.79798C3.46937 8.03377 3.46938 8.42111 3.70516 8.6569L6.53457 11.4863C6.65253 11.6043 6.80407 11.6716 6.97244 11.6716C7.14091 11.6716 7.29247 11.6043 7.4103 11.4863L12.564 6.33263C12.7998 6.09685 12.7998 5.7095 12.564 5.47371C12.3283 5.23793 11.9578 5.23793 11.7051 5.47371Z" fill="#F2F2F2"/>
</svg>
