<svg width="25" height="24" viewBox="0 0 25 24" fill="none" xmlns="http://www.w3.org/2000/svg">
<path d="M12.625 0C6.00605 0 0.625 5.38105 0.625 12C0.625 18.6189 6.00605 24 12.625 24C19.2439 24 24.625 18.6189 24.625 12C24.625 5.38105 19.2439 0 12.625 0ZM12.625 22.5347C6.81447 22.5347 2.09026 17.8105 2.09026 12C2.09026 6.18947 6.81447 1.46526 12.625 1.46526C18.4355 1.46526 23.1597 6.18947 23.1597 12C23.1597 17.8105 18.4355 22.5347 12.625 22.5347Z" fill="#E75820"/>
<path d="M18.1831 8.21052L11.0841 15.3095L7.4716 11.6969C7.11793 11.3433 6.53691 11.3433 6.18323 11.6969C5.82954 12.0506 5.82955 12.6316 6.18323 12.9853L10.4273 17.2294C10.6043 17.4064 10.8316 17.5073 11.0841 17.5073C11.3368 17.5073 11.5642 17.4064 11.7409 17.2294L19.4715 9.4989C19.8251 9.14522 19.8251 8.56421 19.4715 8.21052C19.118 7.85685 18.5622 7.85685 18.1831 8.21052Z" fill="#E75820"/>
</svg>
