<svg width="18" height="13" viewBox="0 0 18 13" fill="none" xmlns="http://www.w3.org/2000/svg">
<path d="M16.3088 0H1.24445C0.944803 0 0.657427 0.123018 0.445543 0.341991C0.233659 0.560963 0.114624 0.857955 0.114624 1.16763V11.2871C0.114624 11.5968 0.233659 11.8937 0.445543 12.1127C0.657427 12.3317 0.944803 12.4547 1.24445 12.4547H16.3088C16.6085 12.4547 16.8959 12.3317 17.1077 12.1127C17.3196 11.8937 17.4387 11.5968 17.4387 11.2871V1.16763C17.4387 0.857955 17.3196 0.560963 17.1077 0.341991C16.8959 0.123018 16.6085 0 16.3088 0ZM1.24445 0.778419H16.3088C16.4087 0.778419 16.5045 0.819425 16.5751 0.892416C16.6458 0.965407 16.6854 1.0644 16.6854 1.16763V1.93437L8.98754 7.35801C8.92526 7.40151 8.85181 7.42476 8.77664 7.42476C8.70147 7.42476 8.62802 7.40151 8.56574 7.35801L0.867843 1.93437V1.16763C0.867843 1.0644 0.907521 0.965407 0.978149 0.892416C1.04878 0.819425 1.14457 0.778419 1.24445 0.778419V0.778419ZM16.3088 11.6763H1.24445C1.14457 11.6763 1.04878 11.6353 0.978149 11.5623C0.907521 11.4893 0.867843 11.3903 0.867843 11.2871V2.87626L5.70351 6.28379L2.31402 9.47337C2.23911 9.54304 2.19405 9.64062 2.18875 9.74463C2.18346 9.84864 2.21836 9.95057 2.28578 10.028C2.3532 10.1054 2.44762 10.152 2.54826 10.1575C2.64891 10.1629 2.74753 10.1269 2.82245 10.0572L6.34939 6.7489L8.14582 8.01383C8.33343 8.14602 8.55523 8.21673 8.78229 8.21673C9.00936 8.21673 9.23115 8.14602 9.41876 8.01383L11.2152 6.7489L14.7421 10.0572C14.817 10.1269 14.9157 10.1629 15.0163 10.1575C15.117 10.152 15.2114 10.1054 15.2788 10.028C15.3462 9.95057 15.3811 9.84864 15.3758 9.74463C15.3705 9.64062 15.3255 9.54304 15.2506 9.47337L11.8611 6.28379L16.6854 2.87626V11.2871C16.6854 11.3903 16.6458 11.4893 16.5751 11.5623C16.5045 11.6353 16.4087 11.6763 16.3088 11.6763Z" fill="#E75820"/>
</svg>
