<svg width="92" height="92" viewBox="0 0 92 92" fill="none" xmlns="http://www.w3.org/2000/svg">
<g filter="url(#filter0_ddd_222_3513)">
<path d="M18 45C18 29.536 30.536 17 46 17C61.464 17 74 29.536 74 45C74 60.464 61.464 73 46 73C30.536 73 18 60.464 18 45Z" fill="#25D366"/>
<path fill-rule="evenodd" clip-rule="evenodd" d="M41.7294 37.6384C41.6888 37.6424 41.6488 37.651 41.6101 37.664C40.3952 38.0371 39.5349 38.6969 39.0703 39.5561C38.6057 40.4152 38.5469 41.4222 38.7464 42.4453C39.1453 44.4913 40.561 46.6905 42.3515 48.522C44.1421 50.3535 46.3012 51.8195 48.3601 52.2465C49.3896 52.4599 50.4146 52.4035 51.3005 51.9396C52.1863 51.4758 52.8911 50.6108 53.3289 49.3743C53.3693 49.2583 53.3694 49.1322 53.3292 49.0162C53.289 48.9002 53.2108 48.8011 53.1073 48.7351L49.2209 46.2976L49.2124 46.2891C49.1932 46.2765 49.1733 46.2651 49.1527 46.255C49.0956 46.218 49.032 46.1919 48.9652 46.1783C48.9595 46.1782 48.9539 46.1782 48.9482 46.1783C48.9341 46.1749 48.9199 46.1721 48.9056 46.1699C48.9027 46.1698 48.8999 46.1698 48.897 46.1699C48.8061 46.1646 48.7153 46.1822 48.6328 46.221C48.6029 46.2354 48.5744 46.2525 48.5476 46.2721C48.5299 46.2825 48.5129 46.2939 48.4965 46.3062C48.4906 46.3146 48.4849 46.3232 48.4794 46.3319C48.458 46.3502 48.4381 46.3701 48.4198 46.3915L47.5675 47.2523C46.0222 46.4745 44.834 45.1705 43.7663 43.4086L44.5504 42.633C44.5654 42.6196 44.5796 42.6054 44.593 42.5904C44.6049 42.5795 44.6163 42.5681 44.6271 42.5563C44.6272 42.5535 44.6272 42.5506 44.6271 42.5478C44.639 42.537 44.6504 42.5256 44.6612 42.5137C44.6612 42.5109 44.6612 42.5081 44.6612 42.5053C44.6671 42.4969 44.6728 42.4884 44.6783 42.4796C44.6841 42.4741 44.6898 42.4685 44.6953 42.4627C44.7016 42.4488 44.7073 42.4346 44.7124 42.4201C44.7124 42.4173 44.7124 42.4145 44.7124 42.4117C44.7153 42.4061 44.7181 42.4004 44.7209 42.3948C44.727 42.3836 44.7326 42.3722 44.7379 42.3607C44.7413 42.3466 44.7442 42.3324 44.7465 42.3181C44.7465 42.3152 44.7465 42.3124 44.7465 42.3096C44.7501 42.2927 44.7529 42.2756 44.755 42.2585C44.755 42.2557 44.755 42.2528 44.755 42.25C44.7555 42.2358 44.7555 42.2216 44.755 42.2074C44.755 42.2046 44.755 42.2017 44.755 42.1989C44.7555 42.1847 44.7555 42.1705 44.755 42.1563C44.7551 42.1507 44.7551 42.1451 44.755 42.1394C44.7527 42.1251 44.7499 42.1109 44.7465 42.0968C44.7465 42.094 44.7465 42.0912 44.7465 42.0883C44.738 42.0561 44.7266 42.0247 44.7124 41.9946C44.7124 41.9918 44.7124 41.989 44.7124 41.9861C44.7026 41.9626 44.6912 41.9399 44.6783 41.918L44.6697 41.901C44.6669 41.8982 44.6641 41.8954 44.6612 41.8926L42.2322 37.9039C42.1851 37.8256 42.1191 37.7603 42.0401 37.7141C41.9612 37.6679 41.8719 37.6424 41.7805 37.6397C41.7635 37.6389 41.7464 37.6389 41.7294 37.6397V37.6384ZM41.5334 38.8401L43.5192 42.1213L42.6925 42.9395C42.6083 43.0245 42.5544 43.1347 42.539 43.2532C42.5236 43.3718 42.5476 43.4922 42.6072 43.5958C43.8688 45.7805 45.3636 47.4801 47.4567 48.4026C47.557 48.4472 47.6684 48.4604 47.7764 48.4407C47.8843 48.4209 47.9838 48.369 48.0618 48.2918L48.9397 47.414L52.1442 49.4168C51.7894 50.2154 51.3268 50.6909 50.7976 50.968C50.1847 51.289 49.436 51.3497 48.5817 51.1726C46.873 50.8182 44.8091 49.4753 43.1271 47.7549C41.4452 46.0345 40.1436 43.9425 39.8118 42.2407C39.6459 41.3897 39.7191 40.6569 40.0334 40.0759C40.3039 39.5756 40.7634 39.1473 41.5334 38.8401Z" fill="#F2F2F2"/>
<path fill-rule="evenodd" clip-rule="evenodd" d="M46 33C39.3806 33 34 38.3779 34 45C34 47.4064 34.7131 49.6556 35.9704 51.5851L34.6284 56.0635C34.5996 56.1596 34.5979 56.2619 34.6235 56.3589C34.649 56.4559 34.7008 56.544 34.7733 56.6135C34.8457 56.683 34.9358 56.7312 35.0338 56.7527C35.1319 56.7742 35.2339 56.7683 35.3288 56.7356L39.7122 55.2228C41.5375 56.3493 43.6959 57 46 57C52.622 57 58 51.6219 58 45C58 38.378 52.622 33 46 33ZM46 34.0907C52.0327 34.0907 56.9093 38.9673 56.9093 45C56.9093 51.0326 52.0327 55.9093 46 55.9093C43.8131 55.9093 41.7792 55.2678 40.0786 54.1644C40.0091 54.1193 39.9302 54.0906 39.8479 54.0805C39.7657 54.0705 39.6822 54.0793 39.6038 54.1063L35.9787 55.3574L37.0887 51.653C37.112 51.5752 37.1177 51.4932 37.1053 51.413C37.0929 51.3328 37.0627 51.2563 37.017 51.1892C35.7846 49.3811 35.0907 47.275 35.0907 45C35.0907 38.9675 39.9702 34.0907 46 34.0907Z" fill="#F2F2F2"/>
</g>
<defs>
<filter id="filter0_ddd_222_3513" x="0" y="0" width="92" height="92" filterUnits="userSpaceOnUse" color-interpolation-filters="sRGB">
<feFlood flood-opacity="0" result="BackgroundImageFix"/>
<feColorMatrix in="SourceAlpha" type="matrix" values="0 0 0 0 0 0 0 0 0 0 0 0 0 0 0 0 0 0 127 0" result="hardAlpha"/>
<feOffset dy="3"/>
<feGaussianBlur stdDeviation="2.5"/>
<feColorMatrix type="matrix" values="0 0 0 0 0 0 0 0 0 0 0 0 0 0 0 0 0 0 0.2 0"/>
<feBlend mode="normal" in2="BackgroundImageFix" result="effect1_dropShadow_222_3513"/>
<feColorMatrix in="SourceAlpha" type="matrix" values="0 0 0 0 0 0 0 0 0 0 0 0 0 0 0 0 0 0 127 0" result="hardAlpha"/>
<feOffset dy="1"/>
<feGaussianBlur stdDeviation="9"/>
<feColorMatrix type="matrix" values="0 0 0 0 0 0 0 0 0 0 0 0 0 0 0 0 0 0 0.12 0"/>
<feBlend mode="normal" in2="effect1_dropShadow_222_3513" result="effect2_dropShadow_222_3513"/>
<feColorMatrix in="SourceAlpha" type="matrix" values="0 0 0 0 0 0 0 0 0 0 0 0 0 0 0 0 0 0 127 0" result="hardAlpha"/>
<feOffset dy="6"/>
<feGaussianBlur stdDeviation="5"/>
<feColorMatrix type="matrix" values="0 0 0 0 0 0 0 0 0 0 0 0 0 0 0 0 0 0 0.14 0"/>
<feBlend mode="normal" in2="effect2_dropShadow_222_3513" result="effect3_dropShadow_222_3513"/>
<feBlend mode="normal" in="SourceGraphic" in2="effect3_dropShadow_222_3513" result="shape"/>
</filter>
</defs>
</svg>
