<svg width="16" height="16" viewBox="0 0 16 16" fill="none" xmlns="http://www.w3.org/2000/svg">
<path d="M2.8172 0.00751589C2.78276 0.0169827 2.6419 0.0450574 2.50724 0.0701935C1.95947 0.176614 1.42411 0.464535 0.976553 0.893481C0.510067 1.3443 0.187705 1.91084 0.0563114 2.52439C0.00310121 2.77461 0 3.072 0 8.0021C0 12.9322 0.00310121 13.2296 0.0563114 13.48C0.275518 14.4973 1.02666 15.3893 1.99391 15.7807C2.57612 16.0155 2.17541 15.9998 7.99768 15.9998C12.9278 15.9998 13.2252 15.9967 13.4756 15.9435C14.4929 15.7244 15.3849 14.9731 15.7763 14.0059C16.011 13.4237 15.9954 13.8244 15.9954 8.0021C15.9954 3.0813 15.9923 2.77461 15.9391 2.52733C15.8139 1.94202 15.5352 1.42542 15.1065 0.980969C14.7903 0.652241 14.4209 0.398758 14.0266 0.236026C13.4225 -0.0112546 13.8983 0.0075162 8.07603 0.00131379C5.21802 -0.00195064 2.85164 0.00115025 2.8172 0.00751589ZM13.4005 0.699248C14.0485 0.874547 14.5775 1.24392 14.9343 1.77912C15.1127 2.04517 15.216 2.27988 15.3005 2.61481L15.3694 2.88397V8.0021V13.1201L15.3005 13.3892C15.1753 13.8807 14.953 14.2752 14.6119 14.6163C14.2708 14.9607 13.8701 15.1829 13.3848 15.3018C13.1375 15.3645 13.028 15.3707 12.0044 15.3707L10.8932 15.3738L10.8838 12.3281L10.8776 9.28551H11.66C12.0888 9.28551 12.4425 9.27931 12.4425 9.26984C12.4425 9.26037 12.5333 8.7033 12.6459 8.03344C12.7585 7.36358 12.8494 6.79377 12.8494 6.7657C12.8494 6.72505 12.7336 6.71869 11.8634 6.71869H10.8774V6.36189C10.8774 6.16472 10.89 5.96754 10.9056 5.92674C10.9588 5.79208 11.0809 5.77021 11.9824 5.75454L12.8183 5.74197V4.6652C12.8183 4.07352 12.8121 3.58843 12.8057 3.58843C12.7993 3.58843 12.6147 3.54142 12.3988 3.48201C11.084 3.11884 9.94475 3.11264 9.25612 3.46014C8.73022 3.72619 8.37962 4.13946 8.18865 4.71531C8.06656 5.08778 8.02902 5.3726 8.00715 6.05193L7.98838 6.71869H7.50639H7.0275V8.0021V9.28551H7.51275H7.99801V12.3405V15.3924L5.42499 15.3799C2.91448 15.3704 2.8425 15.3673 2.59522 15.3017C1.95033 15.1326 1.41823 14.7601 1.06143 14.2249C0.883028 13.9589 0.779709 13.7241 0.69516 13.3891L0.62628 13.1199V8.0021V2.88413L0.69516 2.61498C0.820351 2.12352 1.04266 1.72918 1.38379 1.38788C1.81257 0.955832 2.34157 0.708552 2.95822 0.646038C3.08652 0.63347 5.43103 0.624167 8.17005 0.627268L13.1472 0.63347L13.4005 0.699248ZM11.5505 3.94523C11.7759 3.98587 12.0044 4.03288 12.0608 4.04545L12.161 4.06422V4.59012V5.11602L11.5913 5.13169C10.9464 5.14736 10.7837 5.1818 10.5616 5.35073C10.4834 5.41014 10.3894 5.52293 10.3456 5.61058C10.2705 5.76091 10.2674 5.77968 10.258 6.56836L10.2487 7.37598H11.1784H12.1078L12.089 7.46053C12.0795 7.51064 12.0327 7.79236 11.9857 8.08665L11.898 8.62822H11.0747H10.2514L10.2452 11.9994L10.2359 15.3738H9.43779H8.63963L8.63017 11.9994L8.62396 8.62822H8.15438H7.68479V8.0021V7.37598H8.15438H8.62396V6.80324C8.62396 6.0645 8.66787 5.40084 8.73349 5.13169C8.90568 4.43359 9.33447 4.01101 10.0074 3.88272C10.3455 3.82004 11.0434 3.84518 11.5505 3.94523Z" fill="#E75820"/>
</svg>
