<svg width="80" height="80" viewBox="0 0 80 80" fill="none" xmlns="http://www.w3.org/2000/svg">
<path d="M40 80C32.0888 80 24.3559 77.654 17.7775 73.2589C11.199 68.8639 6.07219 62.6168 3.0448 55.3078C0.017552 47.9987 -0.774866 39.9565 0.768542 32.1966C2.31209 24.4373 6.12176 17.3097 11.7154 11.7155C17.3096 6.12185 24.4368 2.31218 32.1966 0.768631C39.9559 -0.77492 47.9978 0.0175267 55.3077 3.04489C62.6167 6.07213 68.8639 11.1993 73.2589 17.7775C77.6538 24.3557 79.9999 32.0888 79.9999 40.0001C79.9882 50.6048 75.7701 60.7727 68.2712 68.2712C60.7725 75.7699 50.6057 79.9881 40.0002 79.9999L40 80ZM40 3.20103C30.2401 3.20103 20.8803 7.07826 13.9789 13.9793C7.07774 20.8805 3.20065 30.2405 3.20065 40.0004C3.20065 49.7603 7.07789 59.1201 13.9789 66.0215C20.8801 72.9227 30.2401 76.7998 40 76.7998C49.7599 76.7998 59.1198 72.9225 66.0211 66.0215C72.9223 59.1203 76.7994 49.7603 76.7994 40.0004C76.7882 30.2438 72.9077 20.8906 66.0088 13.9907C59.1099 7.09183 49.7562 3.21131 39.9992 3.20017L40 3.20103Z" fill="#E75820"/>
<path d="M57.4241 45.7489C56.8845 45.1322 55.9666 45.0229 55.2968 45.495C50.8119 48.6501 45.4823 50.3845 39.9999 50.4732C34.5173 50.3845 29.1875 48.6501 24.703 45.495C24.0333 45.0229 23.1154 45.1322 22.5757 45.7489C22.2755 46.0881 22.1337 46.539 22.1845 46.9894C22.2359 47.4397 22.4758 47.8471 22.8447 48.1105C27.8653 51.6645 33.8495 53.6048 40.0002 53.6729C46.1508 53.6049 52.135 51.6645 57.1557 48.1105C57.5245 47.8471 57.7645 47.4397 57.8158 46.9894C57.8666 46.5396 57.7248 46.0887 57.4246 45.7489H57.4241Z" fill="#E75820"/>
<path d="M33.33 32.1932C32.6018 32.1882 31.9679 31.6943 31.7849 30.9901C31.4305 29.6832 30.5171 28.5996 29.2894 28.0281C28.0611 27.4573 26.6437 27.4573 25.4161 28.0287C24.1885 28.5996 23.275 29.6832 22.9206 30.9901C22.7376 31.6949 22.1036 32.1882 21.3755 32.1932C20.8727 32.1904 20.3995 31.9532 20.097 31.5509C19.7946 31.1491 19.6969 30.629 19.8336 30.1452C20.4374 27.9298 21.987 26.0934 24.069 25.1257C26.1515 24.1581 28.5544 24.1581 30.6365 25.1257C32.719 26.0934 34.2687 27.9298 34.8719 30.1452C35.0086 30.629 34.9109 31.1491 34.6085 31.5515C34.306 31.9533 33.8328 32.1904 33.33 32.1932V32.1932Z" fill="#E75820"/>
<path d="M58.627 32.1932C57.8993 32.1882 57.2654 31.6943 57.0824 30.9901C56.7275 29.6832 55.814 28.5996 54.5863 28.0281C53.3587 27.4573 51.9412 27.4573 50.7131 28.0287C49.4854 28.5996 48.572 29.6832 48.2176 30.9901C48.0345 31.6949 47.4006 32.1882 46.673 32.1932C46.1697 32.1904 45.697 31.9532 45.3946 31.5509C45.0916 31.1491 44.9945 30.629 45.1306 30.1452C45.7344 27.9298 47.284 26.0934 49.366 25.1257C51.4485 24.1581 53.8514 24.1581 55.9335 25.1257C58.016 26.0934 59.5657 27.9298 60.1688 30.1452C60.3056 30.629 60.2079 31.1491 59.9054 31.5509C59.603 31.9532 59.1303 32.1904 58.627 32.1932L58.627 32.1932Z" fill="#E75820"/>
</svg>
