<svg width="16" height="16" viewBox="0 0 16 16" fill="none" xmlns="http://www.w3.org/2000/svg">
<path d="M4.78479 0C2.19523 0 0.0880127 2.1209 0.0880127 4.72727V11.2727C0.0880127 13.8791 2.19523 16 4.78479 16H11.288C13.8776 16 15.9848 13.8791 15.9848 11.2727V4.72727C15.9848 2.1209 13.8776 0 11.288 0H4.78479ZM4.78479 0.727273H11.288C13.487 0.727273 15.2622 2.51401 15.2622 4.72727V11.2727C15.2622 13.486 13.487 15.2727 11.288 15.2727H4.78479C2.5858 15.2727 0.810594 13.486 0.810594 11.2727V4.72727C0.810594 2.51401 2.5858 0.727273 4.78479 0.727273ZM12.3719 2.90909C12.1803 2.90909 11.9965 2.98571 11.861 3.1221C11.7254 3.25849 11.6493 3.44348 11.6493 3.63636C11.6493 3.82925 11.7254 4.01423 11.861 4.15062C11.9965 4.28701 12.1803 4.36364 12.3719 4.36364C12.5635 4.36364 12.7473 4.28701 12.8828 4.15062C13.0183 4.01423 13.0945 3.82925 13.0945 3.63636C13.0945 3.44348 13.0183 3.25849 12.8828 3.1221C12.7473 2.98571 12.5635 2.90909 12.3719 2.90909ZM8.03641 4C5.8458 4 4.06221 5.79517 4.06221 8C4.06221 10.2048 5.8458 12 8.03641 12C10.227 12 12.0106 10.2048 12.0106 8C12.0106 5.79517 10.227 4 8.03641 4ZM8.03641 4.72727C9.8365 4.72727 11.288 6.18822 11.288 8C11.288 9.81178 9.8365 11.2727 8.03641 11.2727C6.23631 11.2727 4.78479 9.81178 4.78479 8C4.78479 6.18822 6.23631 4.72727 8.03641 4.72727Z" fill="#E75820"/>
</svg>
