<svg width="23" height="40" viewBox="0 0 23 40" fill="none" xmlns="http://www.w3.org/2000/svg">
<path d="M21.2526 17.8143C20.5994 16.7812 19.6606 16.0375 18.5994 15.5414C18.8036 15.2108 18.9667 14.7977 19.0077 14.3843L19.3751 11.6156C19.5792 10.1279 19.1302 8.64017 18.1504 7.52433L15.701 4.71439V0.747363C15.701 0.375506 15.4151 0.0860998 15.0478 0.0860998C14.6805 0.0860998 14.3946 0.375513 14.3946 0.747363V4.96256C14.3946 5.12774 14.4353 5.2932 14.5578 5.37593L17.1295 8.35131C17.8642 9.17774 18.1908 10.2936 18.0683 11.4094L17.742 14.1779C17.6196 14.9631 16.9664 15.5416 16.15 15.5416L12.8436 15.4589C12.4353 15.4589 12.109 15.1282 12.109 14.7152C12.109 14.5085 12.1907 14.3018 12.3539 14.1779C12.517 14.0539 12.7212 13.9712 12.8846 13.9712L15.1298 14.0539C15.4564 14.0539 15.742 13.8472 15.783 13.5166L15.9872 12.0701C16.0279 11.6982 15.783 11.4088 15.4564 11.3264C15.0891 11.2852 14.8032 11.5331 14.7218 11.8637L14.5994 12.6074C12.3542 11.533 12.5176 9.34289 12.5176 9.21862C12.5583 8.84676 12.3134 8.55735 11.9461 8.51613H11.8644C11.5378 8.51613 11.2522 8.76404 11.2522 9.09467C11.1705 10.0038 11.4154 11.4915 12.5586 12.6898C12.1096 12.7311 11.7423 12.9378 11.4156 13.2272C11.2525 13.3923 11.1708 13.5166 11.0483 13.723C10.7217 13.5163 10.3544 13.3923 9.90533 13.3923C9.25214 13.3923 8.68064 13.723 8.31333 14.1776C7.98673 13.9297 7.5787 13.7642 7.12968 13.7642C6.80307 13.7642 6.51748 13.8469 6.2723 13.9709C5.9457 12.1525 5.90498 10.2518 5.90498 8.88802C5.90498 7.68975 6.51717 6.61508 7.53766 5.95381L8.14985 5.58196C8.35401 5.458 8.43573 5.25132 8.43573 5.04465L8.43488 0.747311C8.43488 0.375454 8.149 0.0860481 7.78168 0.0860481C7.41437 0.0860481 7.12849 0.375462 7.12849 0.747311V4.75581L6.8426 4.92099C5.45477 5.78896 4.63844 7.27665 4.63844 8.92949C4.59772 10.6239 4.72016 13.0207 5.20991 15.2522V15.2934C3.86283 15.748 2.71985 16.6159 1.90351 17.8142C0.719859 19.6326 0.474644 21.9054 1.29132 23.9302L3.00579 28.1454C2.63847 29.1373 2.47503 30.1704 2.47503 31.2035C2.47503 34.0962 3.78144 36.741 6.02635 38.4766C6.80202 39.0551 7.74082 39.3857 8.72059 39.3857H14.2722C15.252 39.3857 16.2315 39.0551 16.9664 38.4766C19.8238 36.2452 21.1302 32.6085 20.2728 28.9719C20.1911 28.6825 20.1097 28.3934 20.0279 28.1039L21.8241 23.889C22.6815 21.9055 22.4363 19.5914 21.2527 17.8143L21.2526 17.8143ZM14.8436 16.8227L16.15 16.8639H16.3542V18.4756C16.3542 18.889 16.0276 19.2608 15.5785 19.2608C15.1702 19.2608 14.8029 18.9302 14.8029 18.4756V16.8227L14.8436 16.8227ZM12.068 16.5748C12.3129 16.6987 12.5987 16.7815 12.8843 16.7815H13.5782V18.889C13.5782 19.3023 13.2516 19.6742 12.8026 19.6742C12.3942 19.6742 12.0269 19.3436 12.0269 18.889L12.0272 16.5749L12.068 16.5748ZM9.25129 15.459C9.25129 15.0456 9.57789 14.6737 10.0269 14.6737C10.4353 14.6737 10.8026 15.0043 10.8026 15.459V18.4343C10.8026 18.8477 10.476 19.2196 10.0269 19.2196C9.61863 19.2196 9.25129 18.8889 9.25129 18.4343V15.459ZM10.0269 20.5006C10.476 20.5006 10.8433 20.3766 11.1699 20.1287C11.5372 20.6245 12.1497 20.9551 12.8026 20.9551C13.4558 20.9551 14.068 20.6245 14.4353 20.1287C14.925 20.4594 15.5375 20.6245 16.2315 20.4181C16.5581 20.2942 16.8437 20.0875 17.0888 19.8396C17.252 19.9636 17.4154 20.129 17.5379 20.3354C17.9052 20.9139 17.9869 21.5752 17.701 22.2365L17.0071 23.8893C16.0274 23.1041 14.8844 22.6083 13.7007 22.3189C11.0475 21.6164 8.31256 22.195 6.18974 23.8479L5.49582 22.1535C5.25094 21.5337 5.29166 20.8309 5.69998 20.2524C5.82242 20.0457 5.98587 19.8805 6.18974 19.7566C6.51635 19.9633 6.84294 20.0872 7.25101 20.0872C7.70005 20.0872 8.10839 19.922 8.43466 19.6739C8.80227 20.2112 9.37375 20.5006 10.027 20.5006L10.0269 20.5006ZM6.47563 15.8723C6.47563 15.4589 6.80223 15.087 7.25129 15.087C7.65962 15.087 8.02696 15.4177 8.02696 15.8723L8.02667 18.0625C8.02667 18.4759 7.70007 18.8477 7.25101 18.8477C6.84268 18.8477 6.47534 18.5171 6.47534 18.0625L6.47563 15.8723ZM20.6404 23.3934L18.8442 27.7737C18.7625 27.8977 18.7625 28.1044 18.8442 28.2695C18.9666 28.559 19.0484 28.8893 19.1301 29.2199C19.8647 32.3606 18.7628 35.5014 16.2727 37.4022C15.742 37.8156 15.048 38.0635 14.3541 38.0635L8.84322 38.0638C8.1493 38.0638 7.45539 37.8159 6.92465 37.4025C4.96533 35.9148 3.8631 33.6419 3.8631 31.1626C3.8631 30.2122 4.02626 29.2203 4.39386 28.3111C4.47558 28.1459 4.47558 27.9805 4.39386 27.8153L2.557 23.3934C1.9038 21.7817 2.06724 19.9222 3.04676 18.4757C3.57752 17.6492 4.35317 17.0291 5.21025 16.6573L5.20997 18.0626C5.20997 18.352 5.25069 18.5999 5.37313 18.8478C5.08724 19.0545 4.84237 19.3024 4.67921 19.5915C4.06702 20.5419 3.94459 21.6577 4.39333 22.6909L5.41385 25.1705C5.49557 25.3772 5.65873 25.5011 5.86289 25.5423H5.98533C6.14849 25.5423 6.31193 25.5011 6.43437 25.3772C8.35294 23.6004 10.9248 22.8975 13.5372 23.5176C14.8026 23.807 15.9866 24.4268 16.9661 25.3772C17.1292 25.5011 17.3334 25.5839 17.5376 25.5423C17.7417 25.5011 17.9049 25.3772 17.9866 25.1705L19.0071 22.6909C19.4154 21.6577 19.293 20.5419 18.7212 19.5915C18.4764 19.1781 18.109 18.889 17.7007 18.6411C17.7007 18.5584 17.7414 18.4759 17.7414 18.3932V16.5337C18.762 16.9055 19.66 17.5668 20.3132 18.5172C21.1301 19.9634 21.3343 21.7817 20.6404 23.3933V23.3934Z" fill="#E75820"/>
<path d="M17.0888 28.9721C16.9664 28.6414 16.5991 28.4763 16.2725 28.6002C15.9459 28.7242 15.7827 29.096 15.9052 29.4266C15.9869 29.5918 16.0276 29.7985 16.0683 29.9639C16.5174 31.865 15.8642 33.7246 14.3946 34.8401C14.1087 35.0468 14.068 35.4599 14.2722 35.7493C14.3946 35.9144 14.5988 35.9972 14.7619 35.9972C14.8844 35.9972 15.0478 35.956 15.1293 35.8732C17.0071 34.4267 17.8235 32.0713 17.252 29.6745C17.2523 29.4266 17.1706 29.1784 17.0888 28.972L17.0888 28.9721Z" fill="#E75820"/>
</svg>
