<svg width="13" height="16" viewBox="0 0 13 16" fill="none" xmlns="http://www.w3.org/2000/svg">
<path d="M5.24068 15.222C5.3789 15.4427 5.56951 15.6244 5.7949 15.7502C6.02029 15.8761 6.2732 15.942 6.53025 15.942C6.7873 15.942 7.04021 15.8761 7.2656 15.7502C7.491 15.6244 7.68161 15.4427 7.81982 15.222L11.4853 9.38233C12.0767 8.4707 12.4146 7.41295 12.4631 6.32146C12.5115 5.22997 12.2687 4.1455 11.7604 3.18326C11.2522 2.22101 10.4974 1.41694 9.57637 0.856451C8.65533 0.295964 7.60239 0 6.52942 0C5.45644 0 4.40351 0.295964 3.48246 0.856451C2.56142 1.41694 1.80668 2.22101 1.29841 3.18326C0.790141 4.1455 0.547333 5.22997 0.595781 6.32146C0.644228 7.41295 0.982121 8.4707 1.57356 9.38233L5.24068 15.222ZM6.53025 0.672003C7.48364 0.672323 8.41913 0.935755 9.23722 1.43428C10.0553 1.93281 10.7254 2.6478 11.1763 3.50321C11.6272 4.35862 11.8419 5.32247 11.7978 6.29226C11.7536 7.26205 11.4521 8.20153 10.9255 9.01077L7.26001 14.8572C7.18178 14.9816 7.07409 15.0839 6.94686 15.1548C6.81963 15.2256 6.67694 15.2628 6.53192 15.2628C6.3869 15.2628 6.24421 15.2256 6.11698 15.1548C5.98975 15.0839 5.88206 14.9816 5.80383 14.8572L2.13838 9.00738C1.61333 8.19829 1.31311 7.25958 1.26956 6.29082C1.22601 5.32205 1.44075 4.35934 1.89101 3.50479C2.34127 2.65024 3.01026 1.93571 3.82703 1.43698C4.6438 0.938245 5.5779 0.673909 6.53025 0.672003V0.672003Z" fill="#E75820"/>
<path d="M6.53034 9.23643C7.15084 9.23643 7.7574 9.04906 8.27333 8.69803C8.78925 8.34699 9.19137 7.84805 9.42882 7.26429C9.66628 6.68054 9.7284 6.03819 9.60735 5.41848C9.4863 4.79878 9.1875 4.22954 8.74874 3.78275C8.30998 3.33596 7.75097 3.0317 7.1424 2.90843C6.53382 2.78516 5.90302 2.84843 5.32975 3.09023C4.75648 3.33203 4.26651 3.7415 3.92178 4.26686C3.57705 4.79223 3.39305 5.40989 3.39305 6.04174C3.39393 6.88875 3.72475 7.70081 4.31291 8.29973C4.90108 8.89866 5.69855 9.23553 6.53034 9.23643V9.23643ZM6.53034 3.52738C7.0191 3.52738 7.49688 3.67499 7.90324 3.95153C8.30961 4.22807 8.6263 4.62113 8.81326 5.08098C9.00023 5.54082 9.04906 6.0468 8.95359 6.53492C8.85812 7.02303 8.62262 7.47134 8.2769 7.82315C7.93118 8.17496 7.49076 8.41446 7.01136 8.51135C6.53195 8.60824 6.03509 8.55817 5.58363 8.36748C5.13217 8.17678 4.7464 7.85403 4.4751 7.44004C4.2038 7.02606 4.05916 6.53944 4.05949 6.04174C4.06038 5.37487 4.32103 4.7356 4.78426 4.26421C5.24749 3.79283 5.87545 3.52783 6.53034 3.52738V3.52738Z" fill="#E75820"/>
</svg>
