<svg width="108" height="132" viewBox="0 0 108 132" fill="none" xmlns="http://www.w3.org/2000/svg">
<path d="M53.1989 26.6111C52.8868 26.3591 52.5423 26.1508 52.1748 25.9918C51.4373 25.6657 51.1506 25.7998 51.169 24.5612C51.1655 24.5655 51.1609 24.5685 51.1557 24.57C51.1504 24.5714 51.1449 24.5713 51.1398 24.5695C51.1347 24.5677 51.1302 24.5643 51.127 24.5599C51.1238 24.5555 51.122 24.5502 51.1219 24.5447C51.3407 22.5823 51.8331 20.6608 52.5844 18.8369C54.3378 14.57 53.0084 11.8038 51.5848 10.2328C50.0199 8.50913 47.7155 7.46666 45.2759 6.36431C42.4757 5.09889 39.3008 3.66625 37.1602 1.0776C36.7691 0.605562 36.2435 0.266002 35.6546 0.104864C35.0657 -0.0562738 34.4418 -0.0312139 33.8675 0.176657C33.2932 0.384527 32.7961 0.765172 32.4435 1.26709C32.0908 1.76901 31.8997 2.36799 31.8959 2.98297C31.9018 3.72643 32.1714 4.44325 32.6559 5.00393C32.8894 5.28261 33.129 5.54891 33.3728 5.80695C33.3748 5.81077 33.3758 5.81502 33.3758 5.81933C33.3758 5.82364 33.3748 5.82789 33.3728 5.83172C32.7419 7.927 32.8238 9.79933 34.3417 11.6737C34.3449 11.6817 34.3449 11.6906 34.3417 11.6985C33.5674 14.3119 34.0365 16.5331 35.7755 18.4653C35.7777 18.4691 35.7788 18.4734 35.7788 18.4777C35.7788 18.4821 35.7777 18.4863 35.7755 18.4901C35.2307 20.4595 35.5564 22.2059 36.7424 23.7025C36.7439 23.7061 36.7447 23.7099 36.7447 23.7138C36.7447 23.7177 36.7439 23.7216 36.7424 23.7252C35.3392 28.5867 38.8604 31.2785 42.5474 32.9857C42.5508 32.9872 42.5538 32.9894 42.5562 32.9922C42.5586 32.995 42.5604 32.9983 42.5614 33.0018C42.5624 33.0054 42.5625 33.0091 42.5619 33.0128C42.5613 33.0164 42.5598 33.0199 42.5577 33.0229C42.2391 33.5113 41.9727 34.0324 41.7629 34.5773C41.7616 34.5809 41.7594 34.5841 41.7566 34.5867C41.7537 34.5892 41.7502 34.5909 41.7465 34.5917C40.6641 34.8697 39.7295 35.557 39.1368 36.5111C38.544 37.4652 38.3387 38.6127 38.5634 39.7154C38.6539 40.1526 38.7674 40.5846 38.9034 41.0097C40.2492 45.2766 43.0513 46.3501 44.9051 47.0602C46.5868 47.7063 48.1825 48.3133 50.3333 52.2912C54.5816 60.1232 60.9213 61.2916 64.3236 61.2916H64.3462C65.1613 61.284 65.9468 60.9823 66.5601 60.441C67.1735 59.8998 67.574 59.155 67.6891 58.3417L67.8017 57.5428C67.8018 57.5391 67.8028 57.5355 67.8046 57.5322C67.8064 57.529 67.8089 57.5262 67.812 57.5242C68.2492 57.2137 68.6117 56.8082 68.8726 56.3377C69.1335 55.8671 69.2863 55.3435 69.3196 54.8055C69.4609 52.2127 66.925 51.3457 65.6469 49.5622L65.6325 49.5436C63.4858 46.7175 62.7341 42.9254 61.7406 39.5957L61.7263 39.5502C61.1282 37.5313 60.5137 35.4526 59.8131 33.5142C59.8111 33.5107 59.8101 33.5068 59.8101 33.5028C59.8101 33.4988 59.8111 33.4949 59.8131 33.4915C61.5972 30.9462 55.9683 29.0738 53.1989 26.6111ZM51.4271 27.5483H51.466C53.0747 28.9562 54.8302 30.184 56.7016 31.2104C57.297 31.5352 57.9061 31.8359 58.5288 32.1125L58.539 32.1517L58.0638 32.8041C57.971 32.9317 57.9113 33.0807 57.8902 33.2376C57.8691 33.3944 57.8873 33.5541 57.943 33.702C58.5739 35.3844 59.1372 37.2114 59.6779 39.0321H59.6492H59.5714C55.7369 39.4573 51.9761 40.9684 49.2558 43.7924H49.2231C48.0145 43.043 46.6483 42.6962 45.3947 42.0542C44.2783 41.4824 43.6597 40.3532 43.3463 39.1642C43.1114 38.3541 43.0411 37.5045 43.1396 36.6663C43.2382 35.8281 43.5036 35.0186 43.9198 34.2862C44.0325 34.0922 44.1554 33.9043 44.2865 33.7206C44.291 33.7174 44.2964 33.7157 44.3019 33.7157C44.3074 33.7157 44.3127 33.7174 44.3172 33.7206C44.9031 33.9497 45.4746 34.1582 46.0092 34.3523C46.0129 34.3531 46.0163 34.3549 46.0192 34.3574C46.0221 34.3599 46.0243 34.3631 46.0256 34.3667C46.4352 35.6487 47.5352 36.6003 48.9076 36.6003C49.3676 36.595 49.8203 36.4835 50.2309 36.2743C50.6415 36.0651 50.999 35.7638 51.2759 35.3936C51.5529 35.0234 51.7419 34.5941 51.8285 34.1387C51.9151 33.6834 51.8969 33.2141 51.7753 32.7669C51.7753 32.7669 51.7753 32.7669 51.7753 32.7545C51.3469 31.2705 51.0953 29.7404 51.0256 28.1965C51.0236 28.1912 51.0236 28.1853 51.0256 28.18L51.4271 27.5483ZM34.016 3.80869C33.8338 3.60189 33.727 3.33866 33.7132 3.06244C33.6994 2.78623 33.7795 2.51353 33.9402 2.28935C34.0468 2.15279 34.1823 2.04186 34.3367 1.96462C34.4912 1.88739 34.6608 1.84577 34.8332 1.84281C35.0056 1.83984 35.1765 1.8756 35.3334 1.94748C35.4904 2.01937 35.6295 2.12557 35.7407 2.25839C38.1516 5.17114 41.5294 6.69667 44.5118 8.03847C46.765 9.06031 48.9097 10.0264 50.2186 11.4694C51.7938 13.2054 52.0109 15.3916 50.8802 18.133C47.6765 25.934 49.8335 32.7566 49.983 33.2025C49.9837 33.2073 49.9837 33.2121 49.983 33.2169C50.0479 33.4236 50.0552 33.6443 50.0039 33.8549C49.9526 34.0654 49.8447 34.2577 49.6922 34.4106C49.5396 34.5635 49.3483 34.6711 49.1391 34.7216C48.9298 34.7721 48.7109 34.7636 48.5061 34.697C47.9285 34.4906 47.7728 33.9374 47.6233 33.4006C47.1202 31.4979 46.8512 29.54 46.8224 27.571C46.7525 24.0348 47.4037 20.5218 48.7356 17.2494V17.2329C50.1059 13.8949 48.8462 12.6687 45.3127 10.9677C42.7154 9.72914 40.0341 8.6557 37.6334 7.02696C36.2924 6.12158 35.079 5.03762 34.0262 3.80456L34.016 3.80869ZM34.8702 7.29326C34.8709 7.28862 34.8729 7.28427 34.8758 7.28063C34.8788 7.27699 34.8826 7.2742 34.887 7.27253C34.8913 7.27086 34.896 7.27037 34.9006 7.27111C34.9052 7.27184 34.9096 7.27379 34.9132 7.27674C37.5535 9.48968 40.6896 10.848 43.7785 12.2827C45.5995 13.1291 46.7077 13.738 47.1911 14.3057C47.7421 14.9539 47.3427 15.8643 47.062 16.5455V16.562C47.0313 16.6343 47.0026 16.7086 46.974 16.7829L46.8531 16.7375C45.1263 16.081 43.4159 15.3792 41.7465 14.5824H41.7281C39.6388 13.5853 37.4429 12.4974 35.8923 10.7138C34.8886 9.53923 34.6715 8.48849 34.8804 7.28912L34.8702 7.29326ZM35.8943 13.2178C38.0062 14.9188 41.3881 16.6281 46.3226 18.4984L46.339 18.5314C45.9766 19.6499 45.6871 20.7912 45.4725 21.9478H45.4602C44.2886 21.5081 43.1292 21.0375 41.9964 20.5028C40.3045 19.706 38.5695 18.7729 37.2627 17.4063C36.0787 16.1677 35.624 14.8404 35.8534 13.2426C35.8496 13.236 35.8485 13.2282 35.8504 13.2209C35.8524 13.2135 35.8571 13.2072 35.8636 13.2034C35.8701 13.1996 35.8779 13.1985 35.8852 13.2004C35.8925 13.2024 35.8987 13.2071 35.9025 13.2137L35.8943 13.2178ZM37.3446 19.9516C37.345 19.9468 37.3468 19.9422 37.3496 19.9383C37.3524 19.9344 37.3562 19.9313 37.3606 19.9294C37.365 19.9275 37.3699 19.9269 37.3746 19.9275C37.3794 19.9281 37.3838 19.9301 37.3876 19.9331C39.1 21.2129 41.0439 22.1315 43.0063 22.947C43.7232 23.2415 44.4456 23.5236 45.1734 23.7933L45.1898 23.8202C45.0915 24.6562 45.0321 25.5005 45.0116 26.3448C45.0115 26.349 45.0104 26.3531 45.0085 26.3567C45.0065 26.3604 45.0037 26.3636 45.0004 26.366C44.997 26.3684 44.9931 26.37 44.989 26.3706C44.9849 26.3712 44.9807 26.3709 44.9768 26.3696C43.0268 25.6615 41.0194 24.9246 39.3376 23.686C39.0202 23.4484 38.7235 23.1839 38.4507 22.8953C37.6314 22.0159 37.2647 21.0622 37.3528 19.9475L37.3446 19.9516ZM40.1099 29.3897C38.6904 28.1882 38.0943 26.8423 38.2848 25.226L38.3278 25.2053C40.325 26.673 42.7052 27.5235 45.0198 28.3348H45.0321C45.0884 29.6217 45.237 30.9029 45.4766 32.1682C45.4774 32.1727 45.477 32.1774 45.4754 32.1817C45.4737 32.1859 45.471 32.1897 45.4674 32.1924C45.4638 32.1952 45.4595 32.1969 45.4549 32.1974C45.4504 32.1979 45.4459 32.1971 45.4418 32.1951C45.0772 32.0568 44.7085 31.9123 44.3439 31.7595H44.3295C42.7318 31.0907 41.2365 30.3269 40.1181 29.3855L40.1099 29.3897ZM64.3421 59.4605H64.3195C61.3228 59.4605 55.7266 58.4139 51.929 51.4097C49.4504 46.8373 47.3795 46.0425 45.5524 45.3427C43.8441 44.6883 41.7179 43.8729 40.6363 40.4523C40.243 39.2137 40.1181 37.7687 41.2242 36.8625L41.2672 36.8852C41.2165 38.0717 41.396 39.2567 41.7957 40.3739C42.6048 42.7024 43.8994 43.4704 45.3148 44.036C47.6786 45 49.5754 46.0239 51.1567 48.1006C51.8735 49.0796 52.5223 50.1073 53.0986 51.1764C55.4562 55.3402 59.4485 58.3169 64.3298 58.3169C64.8295 58.3173 65.3288 58.2877 65.8251 58.2281L65.8537 58.2612C65.7683 58.5992 65.5747 58.8994 65.3029 59.1155C65.0312 59.3315 64.6963 59.4513 64.3502 59.4564L64.3421 59.4605ZM64.8746 51.5398C64.8799 51.5348 64.8869 51.5321 64.8941 51.5321C64.9013 51.5321 64.9082 51.5348 64.9135 51.5398C65.234 51.8835 65.592 52.1896 65.9807 52.4522C66.6977 52.9352 67.4822 53.6289 67.5047 54.5681C67.5252 55.4537 66.8062 56.2196 65.9603 56.362H65.9336C64.0465 56.6578 62.115 56.4257 60.3498 55.6911C60.3949 55.7097 60.784 55.3773 60.8271 55.3443C61.985 54.4772 63.0658 53.5102 64.0573 52.4543C64.3373 52.1529 64.6097 51.848 64.8746 51.5398ZM62.8467 48.4288H62.8898C63.1471 48.972 63.4351 49.5 63.7521 50.0101V50.0411C62.2603 51.8381 60.5133 53.4032 58.5677 54.6858H58.5534C58.5042 54.7168 57.9839 54.2729 57.9389 54.2213C57.6684 54.0229 57.4174 53.7989 57.1892 53.5525C57.1865 53.55 57.1844 53.5469 57.1829 53.5436C57.1815 53.5402 57.1807 53.5365 57.1807 53.5329C57.1807 53.5292 57.1815 53.5256 57.1829 53.5222C57.1844 53.5188 57.1865 53.5158 57.1892 53.5133C57.5722 53.2057 58.0331 52.9786 58.4305 52.6875C59.8051 51.6792 61.062 50.5172 62.1769 49.2236C62.4166 48.9718 62.6214 48.6993 62.8508 48.4288H62.8467ZM61.2879 44.3229C61.5522 45.1177 61.8021 45.8257 62.0479 46.4636L61.9864 46.5503L61.9762 46.5627C60.3682 48.7798 58.3199 50.7636 55.9458 52.124L55.913 52.1425L55.8987 52.126C55.3532 51.3925 54.8616 50.6198 54.428 49.814C54.0183 49.077 53.4919 48.3545 53.076 47.6134V47.5804C55.0998 45.4893 58.0782 44.5314 60.9131 44.3415C61.0389 44.3275 61.1655 44.3212 61.292 44.3229H61.2879ZM59.9749 40.8404H59.9893L60.2044 40.8198C60.3682 41.3689 60.5403 41.9428 60.7144 42.5125H60.6468C59.0661 42.6236 57.5103 42.9693 56.0298 43.5385C54.5181 44.108 53.1369 44.981 51.9699 46.1044C51.9679 46.1079 51.9651 46.1107 51.9617 46.1127C51.9583 46.1147 51.9544 46.1157 51.9505 46.1157C51.9465 46.1157 51.9427 46.1147 51.9392 46.1127C51.9358 46.1107 51.933 46.1079 51.931 46.1044C51.8306 45.867 50.702 44.9505 50.7266 44.9257L50.7409 44.9092C51.5484 44.1138 52.4561 43.4288 53.4406 42.8717C55.4593 41.7511 57.6847 41.0598 59.979 40.8404H59.9749Z" fill="#E0E0E0"/>
<path d="M54.0565 77.4649C59.4713 76.8361 62.3412 75.8029 64.5922 70.9435C56.4967 73.8284 58.1049 76.5141 54.0565 77.4649Z" fill="#E0E0E0"/>
<path d="M60.7466 76.8729C66.149 75.8815 68.9793 74.3771 70.4779 69.7065C62.0824 73.9902 64.4805 75.7614 60.7466 76.8729Z" fill="#E0E0E0"/>
<path d="M67.3542 75.7395C72.0326 74.5077 75.3057 72.6948 76.0683 67.8656C72.9539 70.2457 70.0398 72.8795 67.3542 75.7395V75.7395Z" fill="#E0E0E0"/>
<path d="M73.778 73.9552C78.0883 72.2679 81.4407 69.9677 81.2239 65.2855C75.6596 70.1002 76.3739 72.5545 73.778 73.9552Z" fill="#E0E0E0"/>
<path d="M85.8002 61.963C81.598 67.0468 81.9321 69.8922 79.8919 71.3826C83.8084 69.2788 86.909 66.2114 85.8002 61.963Z" fill="#E0E0E0"/>
<path d="M89.6455 57.9036C86.122 64.5471 87.1143 66.2148 85.5081 67.9157C90.4103 64.1066 90.8662 60.2815 89.6455 57.9036Z" fill="#E0E0E0"/>
<path d="M92.6677 53.1747C91.6996 56.5999 90.9329 60.0804 90.3702 63.5973C92.945 60.6979 95.1064 56.2128 92.6677 53.1747Z" fill="#E0E0E0"/>
<path d="M94.827 47.9127C93.5597 54.0938 95.029 56.6662 94.3086 58.44C96.177 55.3871 97.6431 50.2843 94.827 47.9127Z" fill="#E0E0E0"/>
<path d="M96.1471 42.2787C96.1678 45.7812 96.5104 49.2754 97.1708 52.7165C98.809 48.4969 98.5401 43.6571 96.1471 42.2787Z" fill="#E0E0E0"/>
<path d="M96.6547 36.4242C97.0034 39.8938 97.785 43.3059 98.9815 46.5801C100.049 42.216 98.7715 37.2014 96.6547 36.4242V36.4242Z" fill="#E0E0E0"/>
<path d="M96.3002 30.8812C97.0927 34.1274 98.272 37.2657 99.8128 40.2292C100.285 33.8422 97.5384 30.9197 96.3002 30.8812Z" fill="#E0E0E0"/>
<path d="M96.1153 25.9464C95.8691 25.7451 95.5995 25.5753 95.3117 25.4405C95.1129 25.3428 94.8888 25.311 94.6711 25.3496C94.6711 25.3496 94.7396 25.5396 94.8752 25.8552L95.1233 26.4204C95.22 26.6351 95.3447 26.8753 95.4666 27.1365C96.7323 29.4971 98.1812 31.7545 99.7996 33.8868C99.6382 30.8618 98.3177 28.0159 96.1153 25.9464L96.1153 25.9464Z" fill="#E0E0E0"/>
<path d="M63.2863 80.9488L64.0602 81.0586C64.3798 81.1039 64.6908 81.0632 64.965 81.0601C65.2027 81.0613 65.4393 81.0492 65.6755 81.0237L66.306 80.9546C62.7711 78.408 58.4025 77.3196 54.0988 77.9125C57.4219 78.3838 58.9165 80.5091 63.0286 80.986L63.2863 80.9488Z" fill="#E0E0E0"/>
<path d="M73.2309 79.1243C72.0647 78.959 67.9457 75.6484 60.7847 77.3597C64.1105 77.5039 67.6073 80.6734 73.2309 79.1243V79.1243Z" fill="#E0E0E0"/>
<path d="M67.4509 76.1782C70.6685 76.1169 74.328 78.8759 79.9728 76.4844C77.0508 76.0067 73.9107 74.1352 67.4509 76.1782Z" fill="#E0E0E0"/>
<path d="M86.2871 72.9149C83.7559 73.0316 79.9635 71.6901 73.9267 74.3975C76.6738 74.0149 81.1251 76.2222 86.2871 72.9149Z" fill="#E0E0E0"/>
<path d="M91.934 68.3264C88.5047 68.9935 85.3523 68.6515 80.1139 71.8238C82.5552 71.1442 87.4119 72.6377 91.934 68.3264Z" fill="#E0E0E0"/>
<path d="M96.6668 62.8125C93.6921 64.0735 90.1749 64.612 85.8646 68.3737C87.7525 67.4348 93.2752 67.8482 96.6668 62.8125Z" fill="#E0E0E0"/>
<path d="M90.778 63.9906C92.4265 62.8052 97.4455 62.4584 100.122 56.578C96.843 58.7394 94.5545 59.5272 90.778 63.9906V63.9906Z" fill="#E0E0E0"/>
<path d="M94.787 58.8326C95.7905 57.7459 100.854 56.1758 102.407 49.9753C98.1182 53.6363 96.0034 56.5152 94.787 58.8326Z" fill="#E0E0E0"/>
<path d="M103.612 43.1242C101.05 46.003 99.0621 49.3515 97.7579 52.9872C98.6601 51.5679 103.078 49.5033 103.612 43.1242V43.1242Z" fill="#E0E0E0"/>
<path d="M99.6086 46.793C100.236 45.3876 104.198 42.8229 103.768 36.3275L103.769 36.3269C101.809 39.5558 100.403 43.094 99.6086 46.793L99.6086 46.793Z" fill="#E0E0E0"/>
<path d="M102.839 29.2812C102.674 29.7133 100.661 36.552 100.497 40.3246C100.867 38.9455 104.663 35.6251 102.839 29.2812Z" fill="#E0E0E0"/>
<path d="M100.783 23.4123C100.703 23.2006 100.612 22.9932 100.51 22.791C99.8126 25.618 100.534 33.745 100.531 33.84C100.736 32.4383 103.313 29.528 100.783 23.4125L100.783 23.4123Z" fill="#E0E0E0"/>
<path d="M93.2021 15.0795C94.7711 18.9686 95.6769 24.1523 99.0794 27.9624C100.166 24.069 95.7052 17.3954 93.2021 15.0795Z" fill="#E0E0E0"/>
<path d="M53.9607 77.3412C48.5459 76.7123 45.676 75.6792 43.425 70.8198C51.5205 73.7047 49.9123 76.3903 53.9607 77.3412Z" fill="#E0E0E0"/>
<path d="M47.2706 76.7492C41.8683 75.7578 39.038 74.2534 37.5393 69.5828C45.9348 73.8665 43.5368 75.6377 47.2706 76.7492Z" fill="#E0E0E0"/>
<path d="M40.663 75.6158C35.9846 74.3839 32.7115 72.5711 31.949 67.7419C35.0633 70.1219 37.9775 72.7558 40.663 75.6158V75.6158Z" fill="#E0E0E0"/>
<path d="M34.2392 73.8315C29.9289 72.1442 26.5766 69.844 26.7933 65.1618C32.3576 69.9765 31.6434 72.4307 34.2392 73.8315Z" fill="#E0E0E0"/>
<path d="M22.217 61.8392C26.4193 66.9231 26.0851 69.7685 28.1253 71.2589C24.2088 69.1551 21.1082 66.0876 22.217 61.8392Z" fill="#E0E0E0"/>
<path d="M18.3717 57.7799C21.8952 64.4234 20.9029 66.0911 22.5091 67.792C17.6069 63.9829 17.151 60.1578 18.3717 57.7799Z" fill="#E0E0E0"/>
<path d="M15.3495 53.0512C16.3176 56.4765 17.0843 59.957 17.647 63.4739C15.0722 60.5745 12.9108 56.0894 15.3495 53.0512Z" fill="#E0E0E0"/>
<path d="M13.1901 47.789C14.4574 53.9701 12.9882 56.5425 13.7085 58.3163C11.8402 55.2634 10.374 50.1605 13.1901 47.789Z" fill="#E0E0E0"/>
<path d="M11.8701 42.155C11.8494 45.6575 11.5068 49.1517 10.8464 52.5928C9.20817 48.3732 9.47712 43.5334 11.8701 42.155Z" fill="#E0E0E0"/>
<path d="M11.3626 36.3005C11.0139 39.77 10.2322 43.1822 9.03576 46.4564C7.968 42.0922 9.24572 37.0777 11.3626 36.3005V36.3005Z" fill="#E0E0E0"/>
<path d="M11.717 30.7575C10.9245 34.0037 9.7452 37.142 8.20437 40.1055C7.73262 33.7185 10.4788 30.7959 11.717 30.7575Z" fill="#E0E0E0"/>
<path d="M11.9019 25.8226C12.1481 25.6214 12.4178 25.4515 12.7055 25.3168C12.9043 25.2191 13.1284 25.1873 13.3461 25.2258C13.3461 25.2258 13.2776 25.4159 13.142 25.7315L12.8939 26.2966C12.7972 26.5114 12.6725 26.7516 12.5506 27.0128C11.2849 29.3734 9.836 31.6308 8.21764 33.763C8.37904 30.7381 9.69954 27.8922 11.9019 25.8227L11.9019 25.8226Z" fill="#E0E0E0"/>
<path d="M44.731 80.8251L43.9571 80.9349C43.6374 80.9802 43.3264 80.9395 43.0522 80.9364C42.8145 80.9376 42.578 80.9255 42.3417 80.9L41.7112 80.8309C45.2461 78.2843 49.6147 77.1959 53.9184 77.7888C50.5953 78.2601 49.1007 80.3854 44.9886 80.8623L44.731 80.8251Z" fill="#E0E0E0"/>
<path d="M34.7863 79.0006C35.9526 78.8353 40.0715 75.5247 47.2325 77.236C43.9067 77.3802 40.4099 80.5497 34.7863 79.0006V79.0006Z" fill="#E0E0E0"/>
<path d="M40.5663 76.0544C37.3487 75.9932 33.6893 78.7522 28.0445 76.3607C30.9665 75.883 34.1066 74.0115 40.5663 76.0544Z" fill="#E0E0E0"/>
<path d="M21.7301 72.7911C24.2613 72.9078 28.0537 71.5664 34.0906 74.2738C31.3435 73.8912 26.8921 76.0985 21.7301 72.7911Z" fill="#E0E0E0"/>
<path d="M16.0832 68.2026C19.5125 68.8698 22.6649 68.5278 27.9033 71.7001C25.462 71.0205 20.6053 72.514 16.0832 68.2026Z" fill="#E0E0E0"/>
<path d="M11.3504 62.6888C14.3251 63.9498 17.8423 64.4883 22.1526 68.25C20.2646 67.3111 14.742 67.7245 11.3504 62.6888Z" fill="#E0E0E0"/>
<path d="M17.2392 63.8668C15.5907 62.6814 10.5717 62.3347 7.89499 56.4543C11.1742 58.6156 13.4627 59.4035 17.2392 63.8668V63.8668Z" fill="#E0E0E0"/>
<path d="M13.2302 58.7089C12.2267 57.6222 7.16306 56.0521 5.61048 49.8516C9.89906 53.5126 12.0138 56.3914 13.2302 58.7089Z" fill="#E0E0E0"/>
<path d="M4.40483 43.0007C6.96766 45.8795 8.95511 49.228 10.2593 52.8636C9.35714 51.4443 4.93942 49.3798 4.40483 43.0007V43.0007Z" fill="#E0E0E0"/>
<path d="M8.40863 46.6693C7.78149 45.2639 3.81914 42.6992 4.24953 36.2038L4.24871 36.2032C6.20832 39.4321 7.61415 42.9703 8.40864 46.6693L8.40863 46.6693Z" fill="#E0E0E0"/>
<path d="M5.17799 29.1575C5.34314 29.5896 7.3566 36.4283 7.52053 40.2009C7.14984 38.8218 3.35429 35.5014 5.17799 29.1575Z" fill="#E0E0E0"/>
<path d="M7.23452 23.2886C7.31415 23.0769 7.4054 22.8695 7.50696 22.6672C8.20462 25.4943 7.48304 33.6213 7.48588 33.7163C7.28075 32.3146 4.70401 29.4043 7.23452 23.2887L7.23452 23.2886Z" fill="#E0E0E0"/>
<path d="M14.8152 14.9558C13.2461 18.8448 12.3404 24.0286 8.93782 27.8387C7.85118 23.9453 12.312 17.2716 14.8152 14.9558Z" fill="#E0E0E0"/>
<path d="M18.3085 96.3062V111.697H13.9551V105.695H8.01854V111.697H3.66508V96.3062H8.01854V102.089H13.9551V96.3062H18.3085ZM34.6156 108.333V111.697H22.2588V96.3062H34.3298V99.6703H26.5683V102.265H33.4063V105.519H26.5683V108.333H34.6156ZM44.639 107.608H42.2644V111.697H37.911V96.3062H44.9468C46.3394 96.3062 47.5487 96.5408 48.5747 97.0098C49.6008 97.4642 50.3923 98.1239 50.9493 98.9887C51.5064 99.8389 51.7849 100.843 51.7849 102.001C51.7849 103.115 51.521 104.09 50.9933 104.925C50.4803 105.746 49.7401 106.391 48.7726 106.86L52.0927 111.697H47.4314L44.639 107.608ZM47.3874 102.001C47.3874 101.283 47.1602 100.726 46.7058 100.33C46.2514 99.9341 45.5771 99.7362 44.683 99.7362H42.2644V104.244H44.683C45.5771 104.244 46.2514 104.053 46.7058 103.672C47.1602 103.276 47.3874 102.719 47.3874 102.001ZM68.962 111.697L68.918 103.54L64.9603 110.18H63.0255L59.0898 103.76V111.697H55.0661V96.3062H58.65L64.0589 105.189L69.3358 96.3062H72.9197L72.9637 111.697H68.962ZM89.2804 108.333V111.697H76.9236V96.3062H88.9945V99.6703H81.2331V102.265H88.0711V105.519H81.2331V108.333H89.2804ZM97.9845 112.005C96.7386 112.005 95.5293 111.851 94.3567 111.543C93.184 111.236 92.2312 110.825 91.4983 110.312L92.9275 107.102C93.6164 107.556 94.4153 107.923 95.3241 108.201C96.2329 108.48 97.127 108.619 98.0065 108.619C99.6776 108.619 100.513 108.201 100.513 107.366C100.513 106.926 100.271 106.604 99.7875 106.398C99.3184 106.178 98.5562 105.951 97.5008 105.717C96.3428 105.468 95.3754 105.204 94.5985 104.925C93.8216 104.632 93.1547 104.17 92.5977 103.54C92.0407 102.91 91.7622 102.06 91.7622 100.99C91.7622 100.051 92.0187 99.2086 92.5317 98.461C93.0448 97.6988 93.807 97.0978 94.8184 96.658C95.8445 96.2183 97.0977 95.9984 98.5782 95.9984C99.5896 95.9984 100.586 96.1157 101.568 96.3502C102.551 96.5701 103.415 96.8999 104.163 97.3396L102.822 100.572C101.356 99.7802 99.9341 99.3844 98.5562 99.3844C97.6914 99.3844 97.0611 99.5164 96.6653 99.7802C96.2695 100.029 96.0717 100.359 96.0717 100.77C96.0717 101.18 96.3062 101.488 96.7753 101.693C97.2443 101.898 97.9992 102.111 99.0399 102.331C100.213 102.58 101.18 102.851 101.942 103.144C102.719 103.423 103.386 103.877 103.943 104.507C104.515 105.123 104.801 105.966 104.801 107.036C104.801 107.959 104.544 108.795 104.031 109.543C103.518 110.29 102.748 110.891 101.722 111.345C100.696 111.785 99.4504 112.005 97.9845 112.005Z" fill="#E0E0E0"/>
<path d="M19.5349 124.289H20.5902V127.29C20.2091 127.605 19.7657 127.847 19.26 128.016C18.7543 128.184 18.2266 128.269 17.6769 128.269C16.9001 128.269 16.2001 128.1 15.5772 127.763C14.9542 127.418 14.4632 126.949 14.104 126.356C13.7522 125.755 13.5763 125.08 13.5763 124.333C13.5763 123.585 13.7522 122.911 14.104 122.31C14.4632 121.709 14.9542 121.24 15.5772 120.903C16.2075 120.566 16.9147 120.397 17.6989 120.397C18.3146 120.397 18.8716 120.5 19.37 120.705C19.8757 120.903 20.3044 121.196 20.6562 121.585L19.9746 122.266C19.359 121.672 18.6151 121.376 17.7429 121.376C17.1566 121.376 16.6289 121.504 16.1598 121.76C15.6981 122.01 15.3353 122.361 15.0715 122.816C14.8076 123.263 14.6757 123.769 14.6757 124.333C14.6757 124.89 14.8076 125.396 15.0715 125.85C15.3353 126.297 15.6981 126.649 16.1598 126.905C16.6289 127.162 17.1529 127.29 17.7319 127.29C18.4208 127.29 19.0218 127.125 19.5349 126.795V124.289ZM26.0811 125.52V128.181H24.9927V125.498L21.9365 120.485H23.1128L25.5754 124.542L28.049 120.485H29.1373L26.0811 125.52ZM37.6985 128.181L37.6875 122.574L34.9061 127.246H34.4004L31.619 122.607V128.181H30.5637V120.485H31.4651L34.6753 125.894L37.8414 120.485H38.7429L38.7539 128.181H37.6985ZM50.524 128.302L49.5016 127.279C48.82 127.939 47.9625 128.269 46.9291 128.269C46.416 128.269 45.9543 128.184 45.5439 128.016C45.1335 127.847 44.811 127.613 44.5764 127.312C44.3492 127.004 44.2356 126.656 44.2356 126.268C44.2356 125.799 44.3786 125.385 44.6644 125.026C44.9576 124.659 45.4376 124.285 46.1046 123.904C45.7674 123.567 45.5292 123.263 45.39 122.992C45.2507 122.721 45.1811 122.438 45.1811 122.145C45.1811 121.625 45.368 121.207 45.7418 120.892C46.1229 120.577 46.6286 120.419 47.2589 120.419C47.8452 120.419 48.3106 120.562 48.6551 120.848C48.9995 121.134 49.1718 121.526 49.1718 122.024C49.1718 122.413 49.0435 122.761 48.787 123.069C48.5378 123.376 48.12 123.699 47.5337 124.036L49.4356 125.927C49.6555 125.509 49.8131 125.044 49.9083 124.531L50.7548 124.806C50.6229 125.48 50.3994 126.066 50.0842 126.565L51.1176 127.598L50.524 128.302ZM47.2589 121.189C46.9144 121.189 46.6432 121.277 46.4454 121.453C46.2548 121.621 46.1595 121.845 46.1595 122.123C46.1595 122.321 46.2108 122.512 46.3134 122.695C46.4234 122.878 46.6322 123.127 46.9401 123.442C47.4458 123.157 47.7939 122.911 47.9845 122.706C48.1823 122.501 48.2813 122.277 48.2813 122.035C48.2813 121.779 48.1897 121.574 48.0064 121.42C47.8305 121.266 47.5814 121.189 47.2589 121.189ZM46.995 127.389C47.7573 127.389 48.3839 127.147 48.8749 126.664L46.6872 124.487C46.1595 124.78 45.7894 125.055 45.5769 125.311C45.3716 125.561 45.269 125.843 45.269 126.158C45.269 126.524 45.4266 126.821 45.7418 127.048C46.0642 127.276 46.482 127.389 46.995 127.389ZM59.21 125.52V128.181H58.1217V125.498L55.0654 120.485H56.2418L58.7043 124.542L61.1779 120.485H62.2662L59.21 125.52ZM66.9626 128.269C66.1857 128.269 65.4858 128.1 64.8628 127.763C64.2398 127.418 63.7488 126.946 63.3896 126.345C63.0379 125.744 62.862 125.073 62.862 124.333C62.862 123.593 63.0379 122.922 63.3896 122.321C63.7488 121.72 64.2398 121.251 64.8628 120.914C65.4858 120.569 66.1857 120.397 66.9626 120.397C67.7321 120.397 68.4284 120.569 69.0513 120.914C69.6743 121.251 70.1617 121.72 70.5135 122.321C70.8653 122.915 71.0412 123.585 71.0412 124.333C71.0412 125.08 70.8653 125.755 70.5135 126.356C70.1617 126.949 69.6743 127.418 69.0513 127.763C68.4284 128.1 67.7321 128.269 66.9626 128.269ZM66.9626 127.29C67.5269 127.29 68.0326 127.162 68.4797 126.905C68.9341 126.649 69.2895 126.297 69.5461 125.85C69.8099 125.396 69.9418 124.89 69.9418 124.333C69.9418 123.776 69.8099 123.274 69.5461 122.827C69.2895 122.372 68.9341 122.017 68.4797 121.76C68.0326 121.504 67.5269 121.376 66.9626 121.376C66.3982 121.376 65.8852 121.504 65.4235 121.76C64.9691 122.017 64.6099 122.372 64.3461 122.827C64.0896 123.274 63.9613 123.776 63.9613 124.333C63.9613 124.89 64.0896 125.396 64.3461 125.85C64.6099 126.297 64.9691 126.649 65.4235 126.905C65.8852 127.162 66.3982 127.29 66.9626 127.29ZM78.4931 124.289H79.5485V127.29C79.1674 127.605 78.724 127.847 78.2183 128.016C77.7126 128.184 77.1849 128.269 76.6352 128.269C75.8583 128.269 75.1584 128.1 74.5354 127.763C73.9125 127.418 73.4214 126.949 73.0623 126.356C72.7105 125.755 72.5346 125.08 72.5346 124.333C72.5346 123.585 72.7105 122.911 73.0623 122.31C73.4214 121.709 73.9125 121.24 74.5354 120.903C75.1657 120.566 75.873 120.397 76.6572 120.397C77.2728 120.397 77.8298 120.5 78.3282 120.705C78.8339 120.903 79.2627 121.196 79.6145 121.585L78.9329 122.266C78.3172 121.672 77.5733 121.376 76.7012 121.376C76.1148 121.376 75.5871 121.504 75.1181 121.76C74.6564 122.01 74.2936 122.361 74.0297 122.816C73.7659 123.263 73.634 123.769 73.634 124.333C73.634 124.89 73.7659 125.396 74.0297 125.85C74.2936 126.297 74.6564 126.649 75.1181 126.905C75.5871 127.162 76.1112 127.29 76.6902 127.29C77.3791 127.29 77.9801 127.125 78.4931 126.795V124.289ZM86.9962 126.257H82.9066L82.0601 128.181H80.9278L84.4127 120.485H85.5011L88.9971 128.181H87.8427L86.9962 126.257ZM86.6114 125.377L84.9514 121.606L83.2914 125.377H86.6114Z" fill="#E0E0E0"/>
</svg>
