<svg width="120" height="36" viewBox="0 0 120 36" fill="none" xmlns="http://www.w3.org/2000/svg">
<path d="M24.448 21.704H16.336V29.624H8.944V21.704H0.784V14.696H8.944V6.776H16.336V14.696H24.448V21.704ZM45.1765 14.84C47.9605 15.416 50.0885 16.568 51.5605 18.296C53.0645 19.992 53.8165 22.056 53.8165 24.488C53.8165 26.472 53.2725 28.312 52.1845 30.008C51.1285 31.704 49.4965 33.08 47.2885 34.136C45.1125 35.16 42.4085 35.672 39.1765 35.672C36.8085 35.672 34.4565 35.384 32.1205 34.808C29.8165 34.232 27.8165 33.416 26.1205 32.36L29.5765 25.208C30.8885 26.104 32.3605 26.792 33.9925 27.272C35.6565 27.752 37.2885 27.992 38.8885 27.992C40.5205 27.992 41.8165 27.688 42.7765 27.08C43.7365 26.472 44.2165 25.608 44.2165 24.488C44.2165 22.312 42.5045 21.224 39.0805 21.224H35.0965V15.224L41.0965 8.744H27.8485V1.4H52.1365V7.352L45.1765 14.84ZM71.6984 35.672C68.8184 35.672 66.2584 34.984 64.0184 33.608C61.7784 32.232 60.0184 30.232 58.7384 27.608C57.4904 24.952 56.8664 21.816 56.8664 18.2C56.8664 14.584 57.4904 11.464 58.7384 8.84C60.0184 6.184 61.7784 4.168 64.0184 2.792C66.2584 1.416 68.8184 0.727998 71.6984 0.727998C74.5464 0.727998 77.0904 1.416 79.3304 2.792C81.5704 4.168 83.3144 6.184 84.5624 8.84C85.8424 11.464 86.4824 14.584 86.4824 18.2C86.4824 21.816 85.8424 24.952 84.5624 27.608C83.3144 30.232 81.5704 32.232 79.3304 33.608C77.0904 34.984 74.5464 35.672 71.6984 35.672ZM71.6984 27.896C73.2984 27.896 74.5624 27.128 75.4904 25.592C76.4504 24.024 76.9304 21.56 76.9304 18.2C76.9304 14.84 76.4504 12.392 75.4904 10.856C74.5624 9.288 73.2984 8.504 71.6984 8.504C70.0664 8.504 68.7704 9.288 67.8104 10.856C66.8824 12.392 66.4184 14.84 66.4184 18.2C66.4184 21.56 66.8824 24.024 67.8104 25.592C68.7704 27.128 70.0664 27.896 71.6984 27.896ZM104.558 35.672C101.678 35.672 99.1178 34.984 96.8778 33.608C94.6378 32.232 92.8778 30.232 91.5978 27.608C90.3498 24.952 89.7258 21.816 89.7258 18.2C89.7258 14.584 90.3498 11.464 91.5978 8.84C92.8778 6.184 94.6378 4.168 96.8778 2.792C99.1178 1.416 101.678 0.727998 104.558 0.727998C107.406 0.727998 109.95 1.416 112.19 2.792C114.43 4.168 116.174 6.184 117.422 8.84C118.702 11.464 119.342 14.584 119.342 18.2C119.342 21.816 118.702 24.952 117.422 27.608C116.174 30.232 114.43 32.232 112.19 33.608C109.95 34.984 107.406 35.672 104.558 35.672ZM104.558 27.896C106.158 27.896 107.422 27.128 108.35 25.592C109.31 24.024 109.79 21.56 109.79 18.2C109.79 14.84 109.31 12.392 108.35 10.856C107.422 9.288 106.158 8.504 104.558 8.504C102.926 8.504 101.63 9.288 100.67 10.856C99.7418 12.392 99.2778 14.84 99.2778 18.2C99.2778 21.56 99.7418 24.024 100.67 25.592C101.63 27.128 102.926 27.896 104.558 27.896Z" fill="#E75820"/>
</svg>
