<svg width="43" height="33" viewBox="0 0 43 33" fill="none" xmlns="http://www.w3.org/2000/svg">
<path d="M38.2618 24.5682C37.842 24.3512 37.3832 24.1117 36.8759 23.8347H36.8756C36.1588 23.4425 35.5025 22.9513 34.9272 22.3756C35.0859 22.2234 35.1599 22.0052 35.1259 21.7897C35.0625 21.415 34.7023 21.1617 34.3213 21.2238L33.9902 21.2782H33.9906C33.6588 20.8202 33.3652 20.3367 33.1123 19.8323L33.1513 19.8261H33.1516C33.5327 19.7637 33.7904 19.409 33.727 19.034C33.6636 18.6587 33.3034 18.4051 32.9221 18.4675L32.5526 18.5281C32.3608 18.0015 32.2002 17.4642 32.0712 16.9189C32.2752 16.7637 32.3727 16.5086 32.3239 16.2596C32.2749 16.0106 32.0878 15.8096 31.8398 15.7404C31.654 14.6089 31.5865 13.4617 31.639 12.3167V12.2857V12.286C31.6393 12.2783 31.6393 12.2706 31.639 12.2632C31.6083 11.6958 31.7839 11.1364 32.1337 10.6842C32.3989 10.414 32.3948 9.9846 32.125 9.71898C31.8551 9.45337 31.4188 9.44971 31.1442 9.71068C30.5932 10.3417 30.2799 11.1407 30.2577 11.9724C28.6807 13.6249 26.5908 12.4728 25.7471 11.8836C23.7565 10.492 22.2292 7.80055 23.1222 6.24365L23.1219 6.24396C23.9371 5.48656 24.4962 4.50111 24.7236 3.42092C24.901 2.63432 24.6892 1.81145 24.1526 1.20278C23.8771 0.919366 23.4942 0.760757 23.0956 0.765675C22.6967 0.770286 22.3179 0.937505 22.0496 1.22768C21.6754 1.69091 21.462 2.25987 21.4408 2.85131C21.3446 4.05685 20.8164 5.18961 19.9506 6.0475C19.9409 6.05703 19.9371 6.07024 19.9281 6.07977C17.8766 6.91154 15.6958 8.08765 14.4008 10.0733L10.5448 11.1578C10.1404 11.27 9.80864 11.5552 9.64088 11.9345C9.47346 12.3139 9.48814 12.7473 9.68086 13.1146C11.2348 16.0713 15.2325 19.8863 17.1538 21.7218C17.4399 21.9972 17.6779 22.221 17.8493 22.3898C18.2523 22.8235 18.6005 23.3036 18.8864 23.82C20.2716 26.1061 22.0673 28.1253 24.1862 29.7793C27.2816 32.3918 32.9036 32.9199 36.9408 32.9199C38.2239 32.9199 39.3483 32.867 40.1795 32.8098V32.8095C40.7092 32.7723 41.2052 32.539 41.5675 32.1569C41.9302 31.7745 42.1323 31.2717 42.1335 30.7488V29.9452C42.1335 26.5809 40.8391 25.9083 38.2617 24.5684L38.2618 24.5682ZM22.823 3.06116C22.8442 2.76453 22.917 2.47374 23.0385 2.20106C23.062 2.17893 23.0873 2.15834 23.1141 2.13989C23.2312 2.23026 23.3084 2.36183 23.3296 2.50692C23.4774 3.0805 23.2653 4.05335 22.2718 5.1289C22.5504 4.46771 22.7359 3.77179 22.823 3.06114L22.823 3.06116ZM21.4774 6.96186C21.3066 9.06866 22.8808 11.569 24.9373 13.006C26.8067 14.3143 28.7155 14.5485 30.2254 13.7345V13.7342C30.2538 14.4578 30.3241 15.1789 30.4353 15.8942L27.3302 16.4039C26.9726 16.4632 26.7205 16.7816 26.7493 17.1373C26.778 17.4932 27.0782 17.7684 27.4408 17.7714C27.4795 17.7714 27.518 17.7684 27.5564 17.7622L30.6936 17.247C30.8104 17.7422 30.9537 18.2494 31.1308 18.7618L28.7261 19.1565C28.3638 19.2121 28.1067 19.5337 28.1367 19.8933C28.1667 20.253 28.4734 20.5287 28.8401 20.5256C28.8788 20.5256 28.9173 20.5225 28.9557 20.5164L31.6572 20.0728L31.6568 20.0731C31.8911 20.5763 32.1594 21.0632 32.4602 21.5307L30.1248 21.9134C29.77 21.9764 29.522 22.2943 29.5516 22.6478C29.5813 23.0013 29.879 23.2748 30.2394 23.2798C30.2782 23.2798 30.3166 23.2767 30.355 23.2705L33.3948 22.7701C34.1831 23.6852 35.1321 24.4531 36.1972 25.0368C36.7128 25.319 37.1823 25.5637 37.6083 25.7847C39.8256 26.9373 40.5841 27.3311 40.7133 29.2458C37.7111 29.1911 34.7141 28.9664 31.7378 28.5733C28.0624 28.0568 25.9809 24.7463 24.308 22.0859L24.3083 22.0856C23.7517 21.1075 23.091 20.1899 22.338 19.3486C22.0896 19.1043 21.811 18.8371 21.5131 18.5506C19.4254 16.545 16.3028 13.5449 15.5919 10.7851C16.8841 8.82026 19.2935 7.76533 21.4765 6.96182L21.4774 6.96186ZM40.0835 31.4355C37.5269 31.6098 28.889 31.9313 25.0965 28.7336V28.7339C23.0927 27.172 21.3939 25.2647 20.0833 23.1051C19.7416 22.4934 19.3237 21.926 18.8395 21.416C18.664 21.2432 18.4197 21.0118 18.1286 20.733C16.2605 18.9504 12.3739 15.2406 10.929 12.4838L14.3574 11.5198C15.3285 14.5282 18.4301 17.5102 20.5381 19.5376C20.832 19.8198 21.1056 20.0829 21.3511 20.3239V20.3236C22.0239 21.093 22.6167 21.9266 23.1206 22.8119C24.851 25.5627 27.2198 29.3297 31.542 29.9378C34.5909 30.3414 37.6609 30.5713 40.7367 30.6263V30.7502C40.7361 31.1126 40.4503 31.4123 40.0833 31.436L40.0835 31.4355ZM12.7481 28.7883H4.35224C3.96587 28.7883 3.65258 28.48 3.65258 28.0997C3.65258 27.7192 3.96587 27.4112 4.35224 27.4112H12.7481C13.1345 27.4112 13.4478 27.7192 13.4478 28.0997C13.4478 28.48 13.1345 28.7883 12.7481 28.7883ZM14.1474 23.9685H0.853953C0.467583 23.9685 0.154297 23.6602 0.154297 23.2799C0.154297 22.8994 0.467583 22.5914 0.853953 22.5914H14.1474C14.5338 22.5914 14.8471 22.8994 14.8471 23.2799C14.8471 23.6602 14.5338 23.9685 14.1474 23.9685ZM2.25327 18.4601C2.25327 18.0796 2.56655 17.7716 2.95292 17.7716H9.94949C10.3359 17.7716 10.6491 18.0796 10.6491 18.4601C10.6491 18.8403 10.3359 19.1486 9.94949 19.1486H2.95292C2.56655 19.1486 2.25327 18.8403 2.25327 18.4601ZM18.3454 28.0997C18.3454 28.2823 18.2717 28.4572 18.1405 28.5866C18.0093 28.7157 17.8312 28.7883 17.6457 28.7883H15.5467C15.1604 28.7883 14.8471 28.48 14.8471 28.0997C14.8471 27.7192 15.1604 27.4112 15.5467 27.4112H17.6457C17.8312 27.4112 18.0093 27.4837 18.1405 27.6128C18.2717 27.7419 18.3454 27.9172 18.3454 28.0997Z" fill="#E75820"/>
</svg>
