<svg width="40" height="40" viewBox="0 0 40 40" fill="none" xmlns="http://www.w3.org/2000/svg">
<path d="M12.1388 5.71939H6.61227C6.52646 5.71939 6.44148 5.7013 6.36308 5.66648L1.42648 3.47258C1.14248 3.34593 0.901239 3.13978 0.731556 2.87908C0.562139 2.61838 0.471953 2.31409 0.47168 2.00326V1.8004C0.471954 1.24337 0.760343 0.726048 1.2343 0.433335C1.70828 0.140286 2.29989 0.113422 2.79822 0.362336L7.3713 2.64916H12.1388C12.3016 2.64916 12.4579 2.71385 12.573 2.82899C12.6881 2.94412 12.7528 3.10038 12.7528 3.26321V5.10539C12.7528 5.26822 12.6881 5.42448 12.573 5.53961C12.4579 5.65475 12.3016 5.71945 12.1388 5.71945L12.1388 5.71939ZM6.74245 4.49127H11.5247V3.87722H7.22633C7.1312 3.87722 7.03718 3.85529 6.95192 3.8128L2.25245 1.46099C2.13402 1.40644 1.99641 1.41466 1.88538 1.48292C1.77436 1.55118 1.70473 1.67016 1.69979 1.80036V2.00322C1.70007 2.1529 1.78834 2.28887 1.92513 2.35L6.74245 4.49127Z" fill="#E75820"/>
<path d="M12.4749 22.9129C12.4299 22.9127 12.3853 22.908 12.3411 22.8987L8.32154 22.0053C8.16255 21.9702 8.02384 21.8732 7.93639 21.7358C7.84894 21.5985 7.8196 21.4318 7.85497 21.2728L8.74833 17.2532C8.82399 16.9237 9.15021 16.7159 9.48085 16.7867L13.5004 17.68C13.6594 17.7151 13.7981 17.8122 13.8856 17.9495C13.973 18.0868 14.0024 18.2535 13.967 18.4125L13.0736 22.4321C13.0114 22.7128 12.7625 22.9127 12.4749 22.9129L12.4749 22.9129ZM9.1872 20.9395L12.0075 21.5664L12.6345 18.7461L9.81415 18.1191L9.1872 20.9395Z" fill="#E75820"/>
<path d="M27.4902 31.5095H26.2621C26.2259 31.5095 26.1897 31.5062 26.1541 31.4996L8.96045 28.4293L9.17646 27.2209L26.3167 30.2813H27.4903C28.8067 30.2813 30.0231 29.579 30.681 28.4392C31.3392 27.2993 31.3392 25.8946 30.681 24.7548C30.0231 23.615 28.8067 22.9126 27.4903 22.9126H17.6654C17.6152 22.9126 17.5653 22.9066 17.5168 22.8943L15.1335 22.2986H12.7529V21.0705H15.2092C15.2593 21.0705 15.3092 21.0765 15.3577 21.0888L17.7408 21.6845H27.4906C29.2456 21.6845 30.8674 22.621 31.7449 24.1408C32.6224 25.6605 32.6224 27.5334 31.7449 29.0532C30.8674 30.573 29.2456 31.5094 27.4906 31.5094L27.4902 31.5095Z" fill="#E75820"/>
<path d="M27.4902 29.6676C26.676 29.6676 25.8951 29.3441 25.319 28.7685C24.7434 28.1925 24.4199 27.4115 24.4199 26.5973C24.4199 25.7831 24.7434 25.0022 25.319 24.4261C25.895 23.8505 26.676 23.527 27.4902 23.527C28.3044 23.527 29.0854 23.8505 29.6614 24.4261C30.2371 25.0021 30.5605 25.7831 30.5605 26.5973C30.5594 27.4112 30.2357 28.1917 29.6603 28.7674C29.0846 29.3428 28.3041 29.6665 27.4902 29.6676ZM27.4902 24.7551C27.0017 24.7551 26.5329 24.9492 26.1876 25.2946C25.8422 25.64 25.6481 26.1088 25.6481 26.5973C25.6481 27.0857 25.8422 27.5546 26.1876 27.8999C26.533 28.2453 27.0018 28.4394 27.4902 28.4394C27.9786 28.4394 28.4475 28.2453 28.7929 27.8999C29.1382 27.5545 29.3323 27.0857 29.3323 26.5973C29.3323 26.1088 29.1383 25.64 28.7929 25.2946C28.4474 24.9493 27.9786 24.7551 27.4902 24.7551Z" fill="#E75820"/>
<path d="M17.6653 20.2847C17.5644 20.2844 17.4635 20.2721 17.3657 20.2477L13.2158 19.2098L13.513 18.0184L17.6653 19.0566V18.6144H18.8934V19.056C18.8934 19.3817 18.764 19.6939 18.5337 19.9242C18.3035 20.1547 17.9909 20.2841 17.6653 20.2841L17.6653 20.2847Z" fill="#E75820"/>
<path d="M25.6481 22.9129H21.9637C21.7867 22.9129 21.6181 22.8364 21.5013 22.7029C21.4602 22.6558 17.3133 17.9459 13.2013 15.544H12.7526C11.15 15.544 7.84013 15.9977 7.84013 17.3862V17.9731C7.90948 17.9364 8.00461 17.8791 8.07972 17.8339C8.31931 17.6823 8.56987 17.5488 8.8295 17.4342L9.30732 18.5667L9.30704 18.5664C9.10199 18.6582 8.90379 18.7648 8.71409 18.8852C8.4597 19.0774 8.15733 19.1961 7.84017 19.2284C7.5123 19.2353 7.19595 19.1081 6.96407 18.8764C6.73242 18.6445 6.60522 18.3282 6.61208 18.0003V17.3863C6.61208 14.4026 12.1243 14.316 12.7527 14.316H13.3667C13.4744 14.3157 13.5803 14.3437 13.6737 14.3971C17.5522 16.6143 21.354 20.7022 22.239 21.6844H24.3545H24.3542C22.3355 19.3987 20.1158 17.298 17.7224 15.4081L18.491 14.4514H18.4913C21.3045 16.654 23.8668 19.159 26.1323 21.9218C26.2765 22.1069 26.3023 22.3577 26.1995 22.5685C26.0964 22.779 25.8823 22.9128 25.6479 22.9128L25.6481 22.9129Z" fill="#E75820"/>
<path d="M16.6758 14.5844C16.1895 14.2085 15.7414 13.8722 15.3477 13.5821L16.0766 12.5936C16.4763 12.8889 16.9319 13.2299 17.4275 13.6128L16.6758 14.5844Z" fill="#E75820"/>
<path d="M17.0126 22.6588C15.9784 21.2084 14.41 20.2289 12.6528 19.9358L12.8568 18.725C14.935 19.0696 16.7909 20.2269 18.0149 21.9414L17.0126 22.6588Z" fill="#E75820"/>
<path d="M5.53647 31.8782C3.78062 29.8888 3.12824 27.1571 3.79542 24.5888C4.46266 22.021 6.36211 19.9521 8.86389 19.0689L9.27289 20.2262C7.15661 20.9741 5.54988 22.7242 4.98544 24.8967C4.421 27.0689 4.97256 29.3798 6.45756 31.0633L5.53647 31.8782Z" fill="#E75820"/>
<path d="M11.5246 34.5802C10.4257 34.5824 9.33818 34.356 8.33154 33.9152L8.82279 32.7901C9.67482 33.1627 10.5948 33.354 11.5246 33.3521C13.6996 33.3483 15.7405 32.3013 17.0125 30.5373L18.0092 31.2545H18.009C16.5064 33.3393 14.0946 34.5764 11.5246 34.5803L11.5246 34.5802Z" fill="#E75820"/>
<path d="M8.63397 3.69739L6.35781 1.42095H5.63793L4.58989 2.46927L3.72144 1.60082L4.94955 0.372702C5.06469 0.257568 5.22094 0.192871 5.38378 0.192871H6.61189C6.77473 0.192871 6.93099 0.257567 7.04612 0.372702L9.50235 2.82893L8.63397 3.69739Z" fill="#E75820"/>
<path d="M7.22642 39.4925H3.54208C3.21641 39.4925 2.9039 39.3631 2.67363 39.1329C2.44336 38.9026 2.31396 38.5901 2.31396 38.2644V37.0363C2.31396 36.7106 2.44336 36.3981 2.67363 36.1678C2.9039 35.9376 3.21641 35.8082 3.54208 35.8082H7.22642C7.55209 35.8082 7.86461 35.9376 8.09488 36.1678C8.32515 36.3981 8.45454 36.7106 8.45454 37.0363V38.2644C8.45454 38.5901 8.32515 38.9026 8.09488 39.1329C7.86461 39.3631 7.55209 39.4925 7.22642 39.4925ZM3.54208 37.0363V38.2644H7.22642V37.0363H3.54208Z" fill="#E75820"/>
<path d="M38.5433 39.4925H34.859C34.5333 39.4925 34.2208 39.3631 33.9905 39.1329C33.7603 38.9026 33.6309 38.5901 33.6309 38.2644V37.0363C33.6309 36.7106 33.7603 36.3981 33.9905 36.1678C34.2208 35.9376 34.5333 35.8082 34.859 35.8082H38.5433C38.869 35.8082 39.1815 35.9376 39.4118 36.1678C39.642 36.3981 39.7714 36.7106 39.7714 37.0363V38.2644C39.7714 38.5901 39.642 38.9026 39.4118 39.1329C39.1815 39.3631 38.869 39.4925 38.5433 39.4925ZM34.859 37.0363V38.2644H38.5433V37.0363H34.859Z" fill="#E75820"/>
<path d="M36.1518 36.6969C34.9733 34.3396 30.7549 29.5064 30.7124 29.458L31.6371 28.6498C31.8144 28.8524 36.0013 33.6494 37.2508 36.1483L36.1518 36.6969Z" fill="#E75820"/>
<path d="M7.84033 37.0363H9.68251V38.2644H7.84033V37.0363Z" fill="#E75820"/>
<path d="M34.2448 38.2647H10.9106V37.0365H33.0904C32.0029 35.5979 29.7909 33.0273 28.2596 31.3036L29.1771 30.4881C29.6857 31.0597 34.162 36.1117 34.7947 37.3759L34.7944 37.3762C34.8895 37.5664 34.8794 37.7926 34.7673 37.9735C34.6554 38.1547 34.4575 38.2647 34.2448 38.2647H34.2448Z" fill="#E75820"/>
<path d="M37.0834 10.0177H35.4726C35.31 10.0177 35.1541 9.95327 35.0392 9.8384C34.4961 9.27917 33.7864 8.911 33.0164 8.78959H31.3192C30.9039 8.78932 30.511 8.60099 30.2509 8.27779C29.9905 7.95431 29.8904 7.53053 29.9787 7.12476C30.0667 6.71905 30.3339 6.37498 30.7051 6.18915L31.3535 5.86485C31.5443 5.76972 31.7545 5.72011 31.9675 5.71983H37.7298C38.3814 5.72011 38.9938 6.03152 39.3778 6.55762C39.7622 7.08395 39.8721 7.76187 39.6739 8.38253C39.4757 9.00344 38.9932 9.49218 38.375 9.69836L37.7284 9.91383H37.7286C37.5203 9.98291 37.3024 10.018 37.0833 10.0177L37.0834 10.0177ZM35.7146 8.78957H37.0834C37.1703 8.78985 37.2566 8.77587 37.3394 8.74845L37.9867 8.53244V8.53216C38.3658 8.40688 38.5977 8.02474 38.5338 7.63052C38.47 7.23629 38.1292 6.94683 37.7298 6.94738H31.9676C31.9462 6.94793 31.9253 6.95286 31.9062 6.96218L31.257 7.28703C31.1975 7.31663 31.166 7.38325 31.1805 7.44822C31.1951 7.51319 31.2521 7.55979 31.3184 7.56144H33.0164C34.0285 7.65464 34.9795 8.0875 35.7146 8.78955V8.78957Z" fill="#E75820"/>
<path d="M31.1746 13.0877H29.9465V11.2456C29.9465 10.9065 30.2215 10.6315 30.5606 10.6315H34.859V9.40339H36.0871V11.2456C36.0871 11.4084 36.0224 11.5647 35.9073 11.6798C35.7921 11.7949 35.6359 11.8596 35.4731 11.8596H31.1746V13.0877Z" fill="#E75820"/>
<path d="M36.7011 16.1583H31.7887C31.3002 16.1583 30.8314 15.9642 30.486 15.6188C30.1407 15.2734 29.9465 14.8046 29.9465 14.3162V13.0881C29.9465 12.749 30.2215 12.474 30.5606 12.474H36.7012C37.3594 12.474 37.9674 12.8252 38.2966 13.3951C38.6256 13.965 38.6256 14.6674 38.2966 15.2373C37.9674 15.8072 37.3594 16.1584 36.7012 16.1584L36.7011 16.1583ZM31.1746 13.7021V14.3161C31.1746 14.479 31.2393 14.6352 31.3544 14.7504C31.4696 14.8655 31.6258 14.9302 31.7887 14.9302H36.7011C37.0402 14.9302 37.3152 14.6552 37.3152 14.3161C37.3152 13.977 37.0402 13.7021 36.7011 13.7021H31.1746Z" fill="#E75820"/>
<path d="M29.3726 23.3069L32.445 15.3256L33.5917 15.7669L30.5193 23.7483L29.3726 23.3069Z" fill="#E75820"/>
<path d="M31.2124 25.1529L34.9 15.3294L36.0503 15.7611L32.3627 25.5846L31.2124 25.1529Z" fill="#E75820"/>
<path d="M3.57764 36.2265L8.57698 21.4877L9.74067 21.8825L4.74133 36.6213L3.57764 36.2265Z" fill="#E75820"/>
<path d="M10.8755 14.7345L14.6251 3.6801L15.7888 4.07485L12.0392 15.1293L10.8755 14.7345Z" fill="#E75820"/>
<path d="M12.8365 18.1977L11.6729 17.8035L16.1917 4.49147H12.1389V3.26336H17.0514C17.2493 3.26336 17.4352 3.35876 17.5503 3.51967C17.6657 3.68059 17.6964 3.88701 17.6328 4.07451L12.8365 18.1977Z" fill="#E75820"/>
<path d="M5.41919 36.2267L10.3256 21.7609L11.4893 22.1556L6.58288 36.6214L5.41919 36.2267Z" fill="#E75820"/>
</svg>
