<svg width="16" height="16" viewBox="0 0 16 16" fill="none" xmlns="http://www.w3.org/2000/svg">
<path d="M8.03418 0C6.46784 0 4.93668 0.467492 3.63431 1.34336C2.33195 2.21922 1.31688 3.46413 0.717468 4.92064C0.118055 6.37715 -0.0387781 7.97986 0.2668 9.52608C0.572377 11.0723 1.32664 12.4926 2.43421 13.6074C3.54178 14.7221 4.95291 15.4813 6.48915 15.7889C8.0254 16.0964 9.61775 15.9386 11.0649 15.3353C12.512 14.732 13.7488 13.7103 14.619 12.3995C15.4893 11.0886 15.9537 9.54753 15.9537 7.97101C15.9537 5.85697 15.1194 3.82951 13.6342 2.33466C12.1489 0.839801 10.1346 0 8.03418 0V0ZM8.03418 15.1369C6.62606 15.1369 5.24956 14.7166 4.07874 13.9292C2.90793 13.1418 1.9954 12.0227 1.45653 10.7133C0.917664 9.40388 0.776672 7.96306 1.05138 6.57302C1.32609 5.18298 2.00417 3.90615 2.99986 2.90398C3.99556 1.90182 5.26415 1.21934 6.64522 0.942843C8.02628 0.666347 9.4578 0.808254 10.7587 1.35062C12.0597 1.89299 13.1716 2.81145 13.9539 3.98987C14.7362 5.16829 15.1538 6.55374 15.1538 7.97101C15.1485 9.86988 14.3967 11.6895 13.0627 13.0322C11.7286 14.3749 9.92079 15.1316 8.03418 15.1369V15.1369Z" fill="#E75820"/>
<path d="M10.0941 9.72225L7.97422 8.11195V4.00566C7.97422 3.89889 7.93208 3.7965 7.85707 3.721C7.78206 3.6455 7.68032 3.60309 7.57424 3.60309C7.46816 3.60309 7.36642 3.6455 7.29141 3.721C7.2164 3.7965 7.17426 3.89889 7.17426 4.00566V8.31323C7.17573 8.37546 7.19083 8.4366 7.21848 8.49227C7.24614 8.54794 7.28567 8.59678 7.33425 8.6353L9.61413 10.3664C9.64659 10.3955 9.68462 10.4177 9.72588 10.4315C9.76714 10.4454 9.81077 10.4506 9.85411 10.4469C9.91594 10.4454 9.97668 10.4302 10.032 10.4024C10.0873 10.3745 10.1358 10.3348 10.1741 10.2859C10.2287 10.1974 10.2506 10.0925 10.236 9.9894C10.2214 9.88633 10.1711 9.79174 10.0941 9.72225V9.72225Z" fill="#E75820"/>
</svg>
