<svg width="35" height="35" viewBox="0 0 35 35" fill="none" xmlns="http://www.w3.org/2000/svg">
<path fill-rule="evenodd" clip-rule="evenodd" d="M34.7338 32.7151V31.6207H34.7303C34.7303 31.6258 34.7316 31.6301 34.7316 31.6348V32.3418C34.7316 33.7067 33.6254 34.8131 32.2607 34.8131H3.29381C1.9291 34.8131 0.822839 33.7067 0.822839 32.3418V31.6348C0.822839 31.6298 0.82417 31.6255 0.82417 31.6207H0.812988V31.5105H0.83482C0.837749 31.454 0.845469 31.3989 0.851859 31.343C0.93253 25.5048 5.02786 20.4536 10.3434 17.9131C10.7223 18.2433 11.1182 18.5529 11.5386 18.8315C6.33518 21.0895 2.25079 25.9364 2.24874 31.5688H2.22265V31.6205H2.21839V32.3527C2.21839 32.9268 2.68351 33.3925 3.25806 33.3925H32.2965C32.862 33.3925 33.3177 32.9393 33.3314 32.3767V32.6765C33.3694 32.3288 33.3625 31.9653 33.3625 31.5745C33.3625 25.9242 29.2834 21.064 24.0734 18.8132C24.4855 18.5382 24.8734 18.2322 25.2453 17.9071C30.6165 20.4697 34.7396 25.5975 34.7396 31.5163C34.7396 31.9418 34.775 32.3369 34.7332 32.7153L34.7338 32.7151ZM17.7701 17.8674C13.0776 17.8674 9.27361 14.0629 9.27361 9.36989C9.27361 4.67685 13.0776 0.872406 17.7701 0.872406C22.4633 0.872406 26.2666 4.67685 26.2666 9.36989C26.2663 14.0632 22.4631 17.8674 17.7701 17.8674ZM17.7906 2.27934C13.8785 2.27934 10.7063 5.45195 10.7063 9.36443C10.7061 13.277 13.8783 16.4495 17.7906 16.4495C21.7035 16.4495 24.8749 13.2777 24.8749 9.36443C24.8749 5.45113 21.7034 2.27934 17.7906 2.27934Z" fill="#E75820"/>
</svg>
