<svg width="35" height="27" viewBox="0 0 35 27" fill="none" xmlns="http://www.w3.org/2000/svg">
<path d="M32.3892 2.7429L31.3802 3.3254L29.9942 0.924757C29.5408 0.139349 28.5305 -0.130398 27.7437 0.323851L25.58 1.57309C25.0684 1.0239 24.223 0.878539 23.5441 1.27052L21.4501 2.47946C20.9045 2.79452 20.7226 3.49068 21.0335 4.02908L22.9644 7.37352L10.2866 14.693L8.35574 11.3486C8.04123 10.8038 7.34474 10.6232 6.80539 10.9346L4.71145 12.1436C4.03251 12.5355 3.7357 13.3403 3.95551 14.058L1.79178 15.3072C1.00499 15.7615 0.733481 16.7712 1.18694 17.5567L2.57295 19.9573L1.53868 20.5544C1.08817 20.8145 0.932273 21.3944 1.19191 21.8441L2.14276 23.491C2.4024 23.9407 2.98253 24.0956 3.43301 23.8355L4.46728 23.2384L5.8533 25.639C6.30675 26.4244 7.31699 26.6942 8.10378 26.2399L10.2675 24.9907C10.7792 25.5399 11.6245 25.6852 12.3034 25.2933L14.3974 24.0843C14.9431 23.7693 15.1249 23.0731 14.8141 22.5347L12.8831 19.1903L25.5609 11.8708L27.4918 15.2152C27.8063 15.7599 28.5028 15.9406 29.0421 15.6292L31.1361 14.4202C31.815 14.0282 32.1118 13.2235 31.892 12.5058L34.0557 11.2566C34.8425 10.8023 35.114 9.79254 34.6606 9.00713L33.2746 6.60649L34.2835 6.02399C34.734 5.76388 34.8899 5.18403 34.6303 4.73433L33.6794 3.08742C33.4198 2.63769 32.8396 2.48281 32.3892 2.7429V2.7429ZM3.87412 22.314L3.01749 22.8086L2.22025 21.4277L3.07688 20.9332L3.87412 22.314ZM9.68441 24.069L7.55873 25.2963C7.29858 25.4465 6.9585 25.3557 6.80856 25.096L2.13859 17.0074C1.98865 16.7477 2.08006 16.4077 2.34021 16.2575L4.46589 15.0303L9.68441 24.069ZM11.6606 19.2712L13.8658 23.0907C13.8768 23.1097 13.8714 23.1297 13.8523 23.1407L11.7584 24.3496C11.4982 24.4998 11.1582 24.409 11.0082 24.1493L5.05466 13.8374C4.90472 13.5777 4.99612 13.2378 5.25627 13.0876L7.35022 11.8787C7.36925 11.8677 7.38926 11.873 7.40023 11.892L11.6606 19.2712ZM25.0161 10.927L12.3383 18.2465L10.8353 15.6431L23.513 8.32365L25.0161 10.927ZM24.9306 2.57286L30.7892 12.7203C30.9391 12.98 30.8477 13.3199 30.5876 13.4701L28.4936 14.679C28.4746 14.69 28.4546 14.6847 28.4436 14.6657L21.9778 3.46657C21.9669 3.44757 21.9722 3.42758 21.9913 3.41659L24.0852 2.20764C24.3454 2.05744 24.6854 2.14825 24.8354 2.40795L24.9306 2.57286ZM33.7026 9.56031C33.8525 9.82001 33.7611 10.1599 33.501 10.3101L31.3753 11.5374L26.1566 2.49842L28.2823 1.27115C28.5425 1.12095 28.8825 1.21176 29.0325 1.47146L33.7026 9.56031ZM33.6018 5.15083L32.7451 5.64541L31.9479 4.26454L32.8045 3.76997L33.6018 5.15083Z" fill="#E75820"/>
</svg>
