<svg width="17" height="16" viewBox="0 0 17 16" fill="none" xmlns="http://www.w3.org/2000/svg">
<path fill-rule="evenodd" clip-rule="evenodd" d="M6.00099 3.09198C5.9741 3.09468 5.94759 3.10042 5.92196 3.10907C5.11731 3.3578 4.54744 3.79767 4.23969 4.37044C3.93194 4.94321 3.89306 5.61456 4.02518 6.29658C4.28941 7.66063 5.22708 9.12673 6.41309 10.3477C7.5991 11.5688 9.0292 12.5461 10.3929 12.8307C11.0748 12.973 11.7538 12.9354 12.3405 12.6262C12.9273 12.3169 13.3941 11.7403 13.6841 10.9159C13.7108 10.8386 13.7109 10.7545 13.6843 10.6772C13.6576 10.5999 13.6059 10.5338 13.5373 10.4898L10.9631 8.86478L10.9575 8.85915C10.9448 8.85075 10.9316 8.84316 10.9179 8.83642C10.8801 8.81173 10.838 8.79437 10.7938 8.78529C10.79 8.78523 10.7862 8.78523 10.7825 8.78529C10.7731 8.78303 10.7637 8.78115 10.7542 8.77965C10.7524 8.77963 10.7505 8.77963 10.7486 8.77965C10.6883 8.77612 10.6282 8.78784 10.5736 8.81374C10.5538 8.82335 10.5349 8.83476 10.5171 8.84783C10.5054 8.85476 10.4941 8.86235 10.4833 8.87056C10.4793 8.87615 10.4756 8.88186 10.472 8.88766C10.4578 8.89987 10.4446 8.91316 10.4325 8.92742L9.86794 9.5013C8.84442 8.98275 8.0574 8.11338 7.35019 6.93878L7.86955 6.42172C7.87947 6.41279 7.88889 6.40331 7.89777 6.39333C7.90563 6.38609 7.91316 6.37851 7.92035 6.3706C7.92037 6.36872 7.92037 6.36684 7.92035 6.36496C7.92821 6.35772 7.93574 6.35014 7.94294 6.34223C7.94295 6.34035 7.94295 6.33847 7.94294 6.3366C7.94686 6.33101 7.95062 6.32531 7.95423 6.31951C7.95807 6.31583 7.96184 6.31207 7.96552 6.30823C7.96967 6.29892 7.97344 6.28945 7.97681 6.27982C7.97682 6.27794 7.97682 6.27606 7.97681 6.27418C7.97875 6.27046 7.98063 6.2667 7.98245 6.26291C7.98648 6.25547 7.99024 6.24789 7.99374 6.24018C7.996 6.23079 7.99788 6.22132 7.99939 6.21178C7.9994 6.20991 7.9994 6.20803 7.99939 6.20615C8.0018 6.19488 8.00369 6.1835 8.00503 6.17206C8.00505 6.17018 8.00505 6.1683 8.00503 6.16642C8.0054 6.15695 8.0054 6.14747 8.00503 6.138C8.00505 6.13612 8.00505 6.13424 8.00503 6.13236C8.0054 6.1229 8.0054 6.11343 8.00503 6.10396C8.00509 6.1002 8.00509 6.09644 8.00503 6.09269C8.00353 6.08314 8.00164 6.07366 7.99939 6.06427C7.9994 6.06239 7.9994 6.06051 7.99939 6.05863C7.99377 6.03715 7.98621 6.01623 7.97681 5.99614C7.97682 5.99426 7.97682 5.99238 7.97681 5.9905C7.97034 5.97484 7.9628 5.95965 7.95423 5.94505L7.94858 5.93377C7.94672 5.93187 7.94484 5.93 7.94294 5.92815L6.33406 3.26904C6.30285 3.21679 6.2591 3.17326 6.20682 3.14248C6.15454 3.1117 6.09541 3.09466 6.03486 3.09289C6.02358 3.09236 6.01228 3.09236 6.00099 3.09289V3.09198ZM5.87115 3.89311L7.18648 6.08064L6.6389 6.62609C6.58315 6.68271 6.54743 6.75619 6.53723 6.83523C6.52703 6.91428 6.54291 6.99451 6.58245 7.06358C7.41808 8.52007 8.40818 9.65317 9.79456 10.2682C9.86099 10.2979 9.93478 10.3067 10.0063 10.2935C10.0778 10.2803 10.1437 10.2458 10.1954 10.1943L10.7768 9.60906L12.8994 10.9443C12.6644 11.4767 12.358 11.7937 12.0075 11.9784C11.6015 12.1924 11.1056 12.2329 10.5397 12.1148C9.40795 11.8786 8.04087 10.9833 6.9268 9.83633C5.81274 8.68938 4.95061 7.29473 4.73083 6.16018C4.62093 5.5929 4.66948 5.10432 4.8776 4.71699C5.0568 4.38348 5.36119 4.09795 5.87115 3.89311Z" fill="#E75820"/>
<path fill-rule="evenodd" clip-rule="evenodd" d="M8.82983 0C4.44541 0 0.88147 3.58524 0.88147 7.99999C0.88147 9.60426 1.35379 11.1037 2.18658 12.3901L1.29769 15.3757C1.27862 15.4398 1.27749 15.5079 1.29442 15.5726C1.31135 15.6373 1.34569 15.696 1.39365 15.7423C1.44161 15.7887 1.50133 15.8208 1.56625 15.8351C1.63118 15.8495 1.69877 15.8455 1.76161 15.8237L4.66504 14.8152C5.87401 15.5662 7.30365 16 8.82983 16C13.216 16 16.7782 12.4146 16.7782 7.99999C16.7782 3.58535 13.216 0 8.82983 0V0ZM8.82983 0.727166C12.8257 0.727166 16.0557 3.9782 16.0557 7.99999C16.0557 12.0218 12.8257 15.2728 8.82983 15.2728C7.38134 15.2728 6.03415 14.8452 4.90773 14.1096C4.86167 14.0795 4.80942 14.0604 4.75492 14.0537C4.70043 14.047 4.64513 14.0529 4.59324 14.0709L2.19211 14.9049L2.92734 12.4353C2.94277 12.3835 2.94651 12.3288 2.93829 12.2753C2.93007 12.2218 2.91009 12.1709 2.87981 12.1262C2.06354 10.9207 1.60394 9.51666 1.60394 7.99999C1.60394 3.97831 4.8359 0.727166 8.82983 0.727166V0.727166Z" fill="#E75820"/>
</svg>
