<svg width="35" height="40" viewBox="0 0 35 40" fill="none" xmlns="http://www.w3.org/2000/svg">
<path d="M32.0841 34.8999H21.4086L18.3979 30.0799C18.6496 29.4187 18.7772 28.718 18.7745 28.0121C18.8267 26.6974 18.3437 25.4172 17.4329 24.4556C17.4329 24.4377 17.4435 24.4227 17.4435 24.4043V13.7507C18.4991 14.8045 19.9344 15.4032 21.4364 15.4169C21.9726 15.424 22.5062 15.342 23.0146 15.1743C23.2905 15.066 23.4604 14.7905 23.4304 14.4994C23.4009 14.208 23.179 13.9714 22.887 13.9196C22.343 13.6997 21.9167 13.2666 21.7112 12.7236C21.2723 11.9812 21.1483 11.0983 21.3663 10.2663C22.014 8.98911 21.9653 7.75772 21.2275 6.88738C20.5326 6.09298 19.4318 5.77087 18.4098 6.06365C18.0622 6.16096 17.7352 6.31831 17.4435 6.52857V2.48877C17.4435 1.66833 16.9996 0.91063 16.2788 0.500235C15.5583 0.0904164 14.6703 0.0904164 13.95 0.500235C13.2292 0.910335 12.7853 1.66833 12.7853 2.48877V8.02509C10.8275 8.30744 9.39617 9.99222 9.45789 11.9413C9.39615 13.8903 10.8275 15.5751 12.7853 15.8575V16.9351C12.0161 17.3668 11.3281 17.9258 10.7502 18.5867C9.97099 19.343 9.61196 20.4247 9.78659 21.4889C9.78659 21.5001 9.78659 21.5092 10.5658 25.336L4.00098 23.8143C3.3302 23.6594 2.62438 23.803 2.07128 24.2079C1.51897 24.6117 1.17773 25.2367 1.13935 25.9136L0.474135 37.0717C0.415456 38.3483 1.41553 39.4305 2.71004 39.4922H2.8032C4.0377 39.4903 5.05776 38.5424 5.1323 37.3274L5.63789 28.909L13.309 30.6801L18.1237 38.401C18.5465 39.08 19.2968 39.4933 20.1049 39.4926H32.0832C33.3697 39.4926 34.4123 38.4646 34.4123 37.197C34.4123 35.9289 33.3695 34.9012 32.0832 34.9012L32.0841 34.8999ZM18.7809 7.32321C19.2951 7.17655 19.8488 7.3339 20.205 7.72809C20.5924 8.18726 20.5818 8.87941 20.1753 9.68013C19.6594 10.698 19.9759 12.2386 20.5207 13.3096C20.6583 13.5862 20.8216 13.8499 21.0085 14.0966C20.0101 13.9878 18.6685 13.4541 17.4435 11.7282V9.63768C17.4435 9.62644 17.4485 9.61739 17.4435 9.60615C17.4391 9.59491 17.4435 9.57463 17.4435 9.52693V9.40549C17.453 8.91398 17.5945 7.66398 18.7812 7.32348L18.7809 7.32321ZM15.1144 1.44561C15.6817 1.46343 16.1278 1.92945 16.1125 2.48865V9.28072C16.1086 9.37886 16.1125 9.47069 16.1125 9.55869V18.0669C15.7424 18.2355 15.3202 18.2531 14.9367 18.1168C14.5387 17.8923 14.2448 17.5244 14.1163 17.0905V2.48878C14.1008 1.92928 14.5471 1.46329 15.1147 1.44574L15.1144 1.44561ZM10.7885 11.9413C10.7371 10.7189 11.5756 9.63364 12.785 9.35792V14.5244C11.5756 14.2486 10.7371 13.1636 10.7885 11.9411V11.9413ZM11.7396 19.4642C12.1615 18.9826 12.6501 18.5613 13.1907 18.2134C13.465 18.6868 13.8774 19.0676 14.3746 19.3063C14.6994 19.4524 15.0521 19.5273 15.4089 19.5256C15.6461 19.5226 15.8822 19.4927 16.1122 19.4363V22.6625C14.2862 23.3665 12.1693 22.8443 11.3667 22.597L11.0947 21.2535C11.001 20.5892 11.2415 19.9215 11.7396 19.4645L11.7396 19.4642ZM2.80339 38.1797H2.74889C2.19964 38.1457 1.77944 37.6841 1.805 37.1419L1.89427 35.6517L3.87659 36.0415L3.80122 37.2482C3.76979 37.7696 3.3329 38.1772 2.80309 38.1797L2.80339 38.1797ZM19.2555 37.712L14.2975 29.7617C14.2046 29.6126 14.055 29.5059 13.8823 29.4659L5.17179 27.4519C4.98046 27.4091 4.77967 27.4505 4.62171 27.5648C4.4643 27.6808 4.36697 27.859 4.35556 28.0522L3.95621 34.7196L1.97197 34.3293L2.47088 25.988C2.48618 25.7002 2.63051 25.434 2.86495 25.2616C3.10301 25.0864 3.40725 25.0231 3.6965 25.0886L11.2694 26.8463C11.3016 26.854 11.335 26.8595 11.3681 26.8622L13.3968 27.0261C13.7639 27.0555 14.0857 26.7863 14.1157 26.4244C14.1455 26.0628 13.8724 25.7457 13.5053 25.7161L11.9749 25.5927L11.6593 24.0365C12.4377 24.2264 13.2356 24.3254 14.0373 24.3306C14.7395 24.3333 15.4387 24.236 16.1127 24.0419V24.4041C16.1166 24.4608 16.128 24.517 16.1469 24.5707C16.0638 24.8334 16.1572 25.119 16.3802 25.2846C17.1183 25.9993 17.5062 26.994 17.4437 28.0119C17.4532 28.6498 17.3203 29.2816 17.0552 29.8636C17.0486 29.8853 17.0427 29.9072 17.0385 29.9291C17.023 29.9719 17.0124 30.0155 17.0066 30.0604C17.0004 30.1013 16.9988 30.1427 17.0013 30.1838C17.0038 30.2246 17.0102 30.2649 17.0199 30.3044C17.0308 30.3477 17.0466 30.3897 17.0666 30.4297C17.0733 30.4508 17.0808 30.4714 17.0897 30.4916L20.4706 35.9032C20.5924 36.0956 20.8071 36.2124 21.0376 36.2116H29.4228V38.1793H20.1064C19.7596 38.1796 19.4378 38.0025 19.256 37.7116L19.2555 37.712ZM32.0846 38.1797H30.7536V36.212H32.0846C32.6361 36.212 33.0829 36.6525 33.0829 37.1961C33.0829 37.7394 32.636 38.18 32.0846 38.18V38.1797Z" fill="#E75820"/>
</svg>
